<svg width="36" height="33" viewBox="0 0 36 33" fill="none" xmlns="http://www.w3.org/2000/svg">
<path d="M35.5298 24.2539V32.1728H15.7801C10.0259 32.1728 5.00152 28.9882 2.31408 24.2539C1.12492 22.1555 0.426042 19.8142 0.27002 17.4061L0.27002 15.2667C0.340185 14.1677 0.52438 13.0791 0.819624 12.0184C2.66606 5.36873 8.66555 0.5 15.7787 0.5C22.8961 0.5 28.8941 5.37163 30.7391 12.017H22.2946C20.9097 9.85005 18.5094 8.41748 15.7801 8.41748C13.0508 8.41748 10.6519 9.85005 9.26564 12.017C8.83717 12.6842 8.51136 13.4123 8.29914 14.1767C8.10465 14.88 8.00662 15.6066 8.00775 16.3364C8.00456 17.4114 8.21895 18.476 8.63797 19.4656C9.057 20.4552 9.67194 21.3495 10.4456 22.0942C11.877 23.4801 13.7898 24.2544 15.7801 24.2539H35.5298Z" fill="#FD366E"/>
</svg>
