<svg width="144" height="33" viewBox="0 0 144 33" fill="none" xmlns="http://www.w3.org/2000/svg">
<path d="M8.88975 25.6818C12.0056 25.6818 13.578 24.0729 14.2632 22.9771H14.5719C14.7075 24.1408 15.5297 25.2366 17.1381 25.2366H20.1833V21.812H19.3971C18.849 21.812 18.5749 21.5041 18.5749 21.0256V7.29543H14.5358V9.48693H14.2286C13.4424 8.39118 11.7993 6.85018 8.78733 6.85018C3.99669 6.85018 0.436523 10.8212 0.436523 16.2653C0.436523 21.7094 4.06449 25.6818 8.88975 25.6818ZM9.60813 21.7788C6.76779 21.7788 4.54485 19.6899 4.54485 16.3C4.54485 12.978 6.69999 10.72 9.57496 10.72C12.3129 10.72 14.6051 12.7395 14.6051 16.3C14.6051 19.3473 12.6533 21.7788 9.60813 21.7788ZM22.5693 32.1942H26.6069V22.9771H26.9142C27.6672 24.0729 29.2756 25.6818 32.4593 25.6818C37.2499 25.6818 40.7408 21.6414 40.7408 16.2653C40.7408 10.8559 37.0104 6.85018 32.1852 6.85018C29.1054 6.85018 27.5979 8.52706 26.8795 9.45224H26.5723V7.29543H22.5678L22.5693 32.1942ZM31.6038 21.8814C28.8313 21.8814 26.5377 19.8272 26.5377 16.2653C26.5377 13.218 28.4894 10.6506 31.5346 10.6506C34.3764 10.6506 36.5993 12.8768 36.5993 16.2653C36.5993 19.5872 34.4442 21.8814 31.6038 21.8814ZM42.8253 32.1942H46.8644V22.9771H47.1716C47.9246 24.0729 49.533 25.6818 52.7153 25.6818C57.5059 25.6818 60.6636 21.6414 60.6636 16.2653C60.6636 10.8559 57.2664 6.85018 52.4412 6.85018C49.3614 6.85018 47.8554 8.52706 47.137 9.45224H46.8283V7.29543H42.8253V32.1942ZM51.8598 21.8814C49.0873 21.8814 46.7951 19.8272 46.7951 16.2653C46.7951 13.218 48.7454 10.6506 51.7906 10.6506C54.6324 10.6506 56.8568 12.8768 56.8568 16.2653C56.8568 19.5872 54.7002 21.8814 51.8598 21.8814ZM66.0039 25.6529H71.7177L74.9692 11.5801H75.1755L78.4255 25.6529H84.1076L88.6559 7.71175H84.5865L81.3351 21.8192H81.0264L77.7763 7.71031H72.4029L69.1168 21.8192H68.8096L65.5927 7.71031H61.2796L66.0039 25.6529ZM90.7029 25.6529H94.7419V16.7857C94.7419 13.3958 96.3143 11.3069 99.2585 11.3069H101.037V7.26651H99.7028C97.4092 7.26651 95.6637 8.8422 94.9799 10.3485H94.7059V7.71175H90.7029V25.6529ZM121.078 25.6529H124.227V22.0578H121.113C119.881 22.0578 119.367 21.5099 119.367 20.2435V11.2722H124.432V7.71175H119.367V2.67822H115.535V7.71175H112.181V11.2722H115.295V20.2782C115.295 24.0787 117.587 25.6529 121.078 25.6529ZM135.061 25.6818C138.791 25.6818 142.077 23.8315 143.24 20.1019L139.544 19.2099C138.893 21.1962 137.012 22.224 135.027 22.224C132.083 22.224 130.133 20.3057 130.098 17.2931H143.686V16.1627C143.686 10.8212 140.366 6.85018 134.89 6.85018C130.064 6.85018 125.924 10.6506 125.924 16.3C125.924 21.7788 129.585 25.6818 135.061 25.6818ZM130.133 14.3484C130.372 12.1916 132.323 10.376 134.89 10.376C137.354 10.376 139.374 11.917 139.579 14.3484H130.133Z" fill="#EDEDF0"/>
<path fill-rule="evenodd" clip-rule="evenodd" d="M110.384 25.6526H106.345V11.2719H103.198V7.71143H110.384V25.6526Z" fill="#EDEDF0"/>
<path d="M108.066 5.22054C109.538 5.22054 110.632 4.12479 110.632 2.68643C110.632 1.28421 109.538 0.187012 108.066 0.187012C106.593 0.187012 105.499 1.28277 105.499 2.68788C105.499 4.12479 106.593 5.22054 108.066 5.22054Z" fill="#EDEDF0"/>
</svg>
