<svg width="21" height="22" viewBox="0 0 21 22" fill="none" xmlns="http://www.w3.org/2000/svg">
<g clip-path="url(#clip0_3307_1754)">
<path d="M17.5377 3.52075L14.9482 6.04916C14.8669 6.12853 14.7605 6.17892 14.6464 6.19225C14.5321 6.20559 14.4167 6.18109 14.3184 6.1227C13.2998 5.52268 12.1251 5.22344 10.9361 5.2611C9.74702 5.29877 8.59466 5.67172 7.618 6.33493C7.01734 6.74318 6.49578 7.25244 6.07767 7.83895C5.39926 8.79316 5.01766 9.91844 4.97879 11.0794C4.93993 12.2404 5.24545 13.3877 5.8586 14.3831C5.91797 14.4789 5.94282 14.5913 5.92917 14.7025C5.91553 14.8136 5.86417 14.9171 5.78329 14.9964L3.19383 17.5248C3.1417 17.5761 3.07882 17.6157 3.00952 17.641C2.94023 17.6664 2.86616 17.6767 2.79237 17.6716C2.71857 17.6663 2.64681 17.6456 2.582 17.6107C2.51717 17.5759 2.46084 17.5278 2.41683 17.4697C1.01577 15.5893 0.291705 13.3089 0.357653 10.9844C0.4236 8.65989 1.27585 6.42212 2.78137 4.62034C3.24099 4.06907 3.75711 3.56511 4.3217 3.11633C6.16683 1.64669 8.45829 0.81477 10.8385 0.750378C13.2187 0.685987 15.5538 1.39274 17.4795 2.76037C17.5394 2.8032 17.589 2.8582 17.625 2.92157C17.661 2.98495 17.6825 3.05518 17.6881 3.12746C17.6937 3.19973 17.6831 3.27232 17.6571 3.34022C17.6311 3.40811 17.5904 3.4697 17.5377 3.52075Z" fill="url(#paint0_linear_3307_1754)"/>
<path d="M17.5353 19.0291L14.9459 16.5006C14.8645 16.4213 14.7582 16.3709 14.644 16.3576C14.5298 16.3442 14.4143 16.3687 14.3161 16.4271C13.3556 16.9928 12.2552 17.2918 11.1336 17.2918C10.0119 17.2918 8.91153 16.9928 7.95109 16.4271C7.85285 16.3687 7.73737 16.3442 7.62316 16.3576C7.50896 16.3709 7.40265 16.4213 7.32128 16.5006L4.73182 19.0291C4.67751 19.08 4.63536 19.1421 4.60836 19.2107C4.58134 19.2793 4.57014 19.353 4.57554 19.4264C4.58092 19.4997 4.60277 19.571 4.63955 19.6352C4.67632 19.6994 4.7271 19.7549 4.7883 19.7977C6.63154 21.1073 8.85238 21.8126 11.1319 21.8126C13.4114 21.8126 15.6322 21.1073 17.4755 19.7977C17.5369 19.7552 17.5879 19.6999 17.6251 19.6358C17.6621 19.5717 17.6843 19.5005 17.6901 19.4272C17.6957 19.3538 17.6848 19.28 17.6581 19.2113C17.6314 19.1425 17.5895 19.0803 17.5353 19.0291Z" fill="white"/>
<path d="M11.1383 14.2832C12.8396 14.2832 14.219 12.9364 14.219 11.2751C14.219 9.61386 12.8396 8.26709 11.1383 8.26709C9.43686 8.26709 8.05762 9.61386 8.05762 11.2751C8.05762 12.9364 9.43686 14.2832 11.1383 14.2832Z" fill="white"/>
</g>
<defs>
<linearGradient id="paint0_linear_3307_1754" x1="15.104" y1="-0.797466" x2="-6.21357" y2="21.0364" gradientUnits="userSpaceOnUse">
<stop stop-color="#17CCFC"/>
<stop offset="0.5" stop-color="#5D31FF"/>
<stop offset="1" stop-color="#F35AFF"/>
</linearGradient>
<clipPath id="clip0_3307_1754">
<rect width="20.0128" height="21.0661" fill="white" transform="translate(0.353516 0.746338)"/>
</clipPath>
</defs>
</svg>
