<svg width="43" height="29" viewBox="0 0 43 29" fill="none" xmlns="http://www.w3.org/2000/svg">
<path d="M34.7815 10.4827C33.8625 7.60171 32.056 5.08492 29.6203 3.29205C27.1846 1.49919 24.2443 0.522023 21.2197 0.500231C18.6625 0.485571 16.1497 1.16779 13.9511 2.47358C11.7526 3.77937 9.9515 5.65938 8.74134 7.91162C6.5172 8.31011 4.47831 9.40786 2.92143 11.0451C1.36455 12.6823 0.370937 14.7736 0.0852101 17.0145C-0.200517 19.2554 0.236555 21.529 1.33281 23.5043C2.42907 25.4797 4.12729 27.0537 6.18031 27.9973L6.44671 28.118H6.46447V25.0995C5.0561 24.2352 3.95354 22.9519 3.31132 21.4296C2.66911 19.9073 2.51943 18.2223 2.88326 16.6107C3.2471 14.9991 4.10621 13.5417 5.34019 12.4427C6.57417 11.3438 8.12116 10.6584 9.76433 10.4827L10.5103 10.4046L10.8371 9.73339C11.7649 7.76746 13.2349 6.10721 15.0741 4.94782C16.9133 3.78842 19.0454 3.17807 21.2197 3.1885C23.8105 3.20677 26.3208 4.09052 28.3514 5.69919C30.3821 7.30787 31.8164 9.54912 32.4265 12.0665L32.6822 13.0822H33.7478C35.4657 13.1174 37.1016 13.8228 38.3063 15.0477C39.5109 16.2726 40.1887 17.9199 40.1948 19.6377C40.1948 22.1413 38.7491 24.1904 36.2875 25.2273V28.0896L36.4651 28.0328C40.4221 26.7366 42.8802 23.5192 42.8802 19.6377C42.8639 17.3912 42.0348 15.2265 40.5461 13.5436C39.0574 11.8607 37.0097 10.7734 34.7815 10.4827Z" fill="white"/>
<path d="M16.0123 27.7703L16.602 28.3598C16.6179 28.3762 16.6287 28.3969 16.633 28.4193C16.6373 28.4417 16.635 28.4649 16.6263 28.486C16.6177 28.5072 16.603 28.5253 16.5842 28.5382C16.5653 28.5511 16.5431 28.5582 16.5203 28.5587H11.8671C11.3018 28.5587 10.7597 28.3342 10.36 27.9346C9.96037 27.535 9.73583 26.9931 9.73583 26.428V17.3937C9.73583 17.3626 9.72348 17.3328 9.70149 17.3108C9.67951 17.2888 9.6497 17.2765 9.61861 17.2765H8.62403C8.60089 17.2767 8.57819 17.2701 8.55881 17.2575C8.53942 17.2448 8.52421 17.2267 8.51509 17.2055C8.50598 17.1842 8.50336 17.1607 8.50758 17.138C8.51179 17.1152 8.52265 17.0942 8.53878 17.0776L12.4887 13.1287C12.4996 13.1176 12.5126 13.1088 12.5269 13.1028C12.5412 13.0968 12.5566 13.0938 12.5721 13.0938C12.5877 13.0938 12.6031 13.0968 12.6174 13.1028C12.6317 13.1088 12.6447 13.1176 12.6556 13.1287L16.602 17.0776C16.6179 17.094 16.6287 17.1147 16.633 17.1371C16.6373 17.1595 16.635 17.1827 16.6263 17.2038C16.6177 17.225 16.603 17.2431 16.5842 17.256C16.5653 17.2689 16.5431 17.276 16.5203 17.2765H15.5115C15.48 17.2765 15.4499 17.2887 15.4273 17.3106C15.4048 17.3325 15.3916 17.3623 15.3907 17.3937V26.2717C15.3921 26.8337 15.6155 27.3723 16.0123 27.7703Z" fill="white"/>
<path d="M24.7395 27.77L25.3327 28.3595C25.3488 28.3761 25.3597 28.3971 25.3639 28.4198C25.3681 28.4426 25.3655 28.466 25.3564 28.4873C25.3473 28.5086 25.332 28.5267 25.3127 28.5393C25.2933 28.5519 25.2706 28.5586 25.2474 28.5583H20.6049C20.0397 28.5583 19.4976 28.3338 19.0979 27.9343C18.6982 27.5347 18.4737 26.9927 18.4737 26.4276V19.6767C18.4737 19.6453 18.4614 19.6151 18.4396 19.5926C18.4177 19.5701 18.3879 19.5569 18.3564 19.556H17.3512C17.3284 19.5555 17.3062 19.5484 17.2873 19.5355C17.2685 19.5226 17.2538 19.5045 17.2451 19.4834C17.2364 19.4622 17.2341 19.439 17.2385 19.4166C17.2428 19.3942 17.2536 19.3735 17.2695 19.3571L21.2158 15.4153C21.2268 15.4042 21.2397 15.3954 21.2541 15.3895C21.2684 15.3835 21.2838 15.3804 21.2993 15.3804C21.3149 15.3804 21.3302 15.3835 21.3446 15.3895C21.3589 15.3954 21.3719 15.4042 21.3828 15.4153L25.3327 19.35C25.3488 19.3666 25.3597 19.3876 25.3639 19.4104C25.3681 19.4331 25.3655 19.4566 25.3564 19.4779C25.3473 19.4991 25.332 19.5172 25.3127 19.5299C25.2933 19.5425 25.2706 19.5491 25.2474 19.5489H24.2386C24.2072 19.5498 24.1774 19.563 24.1555 19.5855C24.1337 19.608 24.1214 19.6382 24.1214 19.6696V26.2713C24.1219 26.8328 24.344 27.3713 24.7395 27.77Z" fill="white"/>
<path d="M33.4707 27.7702L34.0604 28.3597C34.0763 28.3761 34.0871 28.3968 34.0914 28.4192C34.0958 28.4416 34.0935 28.4648 34.0848 28.486C34.0761 28.5071 34.0614 28.5252 34.0426 28.5381C34.0237 28.551 34.0015 28.5582 33.9787 28.5586H29.3219C28.7567 28.5586 28.2146 28.3341 27.8149 27.9345C27.4153 27.535 27.1907 26.993 27.1907 26.4279V21.9427C27.1907 21.9116 27.1784 21.8818 27.1564 21.8598C27.1344 21.8379 27.1046 21.8255 27.0735 21.8255H26.0789C26.0553 21.8258 26.0322 21.8189 26.0126 21.8058C25.993 21.7927 25.9778 21.774 25.969 21.7522C25.9601 21.7303 25.9581 21.7063 25.9632 21.6833C25.9682 21.6602 25.9801 21.6393 25.9972 21.6231L29.9471 17.6777C29.9577 17.6667 29.9704 17.658 29.9844 17.6521C29.9985 17.6461 30.0136 17.6431 30.0288 17.6431C30.0441 17.6431 30.0591 17.6461 30.0732 17.6521C30.0872 17.658 30.0999 17.6667 30.1105 17.6777L34.0604 21.6231C34.0775 21.6393 34.0894 21.6602 34.0945 21.6833C34.0995 21.7063 34.0975 21.7303 34.0886 21.7522C34.0798 21.774 34.0646 21.7927 34.045 21.8058C34.0254 21.8189 34.0023 21.8258 33.9787 21.8255H32.9664C32.9353 21.8255 32.9055 21.8379 32.8835 21.8598C32.8615 21.8818 32.8491 21.9116 32.8491 21.9427V26.2716C32.8506 26.8336 33.074 27.3722 33.4707 27.7702Z" fill="white"/>
</svg>
