<svg width="131" height="28" viewBox="0 0 131 28" fill="none" xmlns="http://www.w3.org/2000/svg">
<path d="M10.0245 4.29983C10.9559 4.30166 11.8745 4.51711 12.7095 4.9296C13.5446 5.34209 14.2738 5.94063 14.8411 6.67914C14.8612 6.70591 14.8866 6.72827 14.9157 6.74484C14.9448 6.76142 14.977 6.77186 15.0103 6.77552C15.0436 6.77918 15.0772 6.77598 15.1092 6.76613C15.1412 6.75627 15.1709 6.73996 15.1963 6.71821L17.2246 5.1024C17.2505 5.08169 17.2721 5.05606 17.2881 5.02698C17.3041 4.9979 17.3142 4.96595 17.3179 4.93296C17.3215 4.89996 17.3186 4.86658 17.3093 4.83471C17.3 4.80285 17.2845 4.77314 17.2636 4.74728C16.4004 3.62727 15.2913 2.72043 14.022 2.09672C12.7528 1.47301 11.3572 1.14907 9.94285 1.1499C4.64673 1.1499 0.352295 5.71321 0.352295 11.3241C0.352295 16.9351 4.66094 21.4984 9.94285 21.4984C11.357 21.5031 12.7531 21.1812 14.0223 20.5579C15.2915 19.9345 16.3996 19.0264 17.2601 17.9045C17.2816 17.8789 17.2977 17.849 17.3073 17.8169C17.3169 17.7848 17.3198 17.751 17.3158 17.7177C17.3118 17.6844 17.301 17.6523 17.2841 17.6234C17.2672 17.5944 17.2445 17.5693 17.2175 17.5494L15.1928 15.9514C15.1669 15.9306 15.1372 15.915 15.1053 15.9057C15.0735 15.8964 15.0401 15.8935 15.0071 15.8971C14.9741 15.9008 14.9421 15.9109 14.913 15.9269C14.8839 15.9429 14.8583 15.9645 14.8376 15.9904C14.2674 16.7241 13.5378 17.3186 12.704 17.729C11.8701 18.1393 10.9539 18.3548 10.0245 18.3591C6.405 18.3591 3.57401 15.2695 3.57401 11.3312C3.57401 7.39294 6.405 4.29983 10.0245 4.29983Z" fill="white"/>
<path d="M19.8776 0.570801H22.4208C22.4877 0.570801 22.5519 0.597365 22.5992 0.64465C22.6465 0.691935 22.673 0.756067 22.673 0.822937V20.9867C22.673 21.0527 22.6468 21.1159 22.6002 21.1625C22.5536 21.2091 22.4903 21.2353 22.4244 21.2353H19.8811C19.8142 21.2353 19.7501 21.2088 19.7028 21.1615C19.6555 21.1142 19.6289 21.0501 19.6289 20.9832V0.822937C19.6285 0.789995 19.6345 0.757288 19.6468 0.726717C19.6591 0.696146 19.6774 0.668321 19.7005 0.64486C19.7236 0.6214 19.7512 0.602771 19.7816 0.590057C19.812 0.577343 19.8446 0.570797 19.8776 0.570801Z" fill="white"/>
<path d="M31.34 7.54541C27.9691 7.54541 24.5591 9.93183 24.5591 14.4951C24.5591 18.5045 27.4753 21.5301 31.34 21.5301C35.2046 21.5301 38.1493 18.5045 38.1493 14.4951C38.1493 10.4858 35.2224 7.54541 31.34 7.54541ZM35.0803 14.4951C35.0803 16.8105 33.4712 18.5577 31.34 18.5577C29.2087 18.5577 27.6316 16.8105 27.6316 14.4951C27.6316 12.1797 29.2265 10.5178 31.34 10.5178C33.4534 10.5178 35.0803 12.2259 35.0803 14.4951Z" fill="white"/>
<path d="M51.8567 7.83645H49.3134C49.2805 7.83598 49.2478 7.84206 49.2172 7.85435C49.1866 7.86663 49.1588 7.88486 49.1353 7.90799C49.1119 7.93112 49.0932 7.95869 49.0805 7.98908C49.0678 8.01947 49.0612 8.05209 49.0612 8.08504V14.8323C49.0612 17.4673 47.2426 18.4013 45.6832 18.4013C44.305 18.4013 42.9162 17.3608 42.9162 15.0348V8.08504C42.9162 8.05209 42.9096 8.01947 42.8969 7.98908C42.8842 7.95869 42.8656 7.93112 42.8421 7.90799C42.8186 7.88486 42.7908 7.86663 42.7602 7.85435C42.7297 7.84206 42.6969 7.83598 42.664 7.83645H40.1207C40.0548 7.83645 39.9915 7.86264 39.9449 7.90926C39.8983 7.95588 39.8721 8.01911 39.8721 8.08504V15.365C39.8721 19.3601 41.6801 21.5583 44.9657 21.5583C46.1592 21.5583 48.0915 20.873 48.8161 19.3601L49.0612 19.4099V20.9866C49.0612 21.0535 49.0878 21.1176 49.1351 21.1649C49.1824 21.2122 49.2466 21.2387 49.3134 21.2387H51.8567C51.9236 21.2387 51.9877 21.2122 52.035 21.1649C52.0823 21.1176 52.1089 21.0535 52.1089 20.9866V8.08504C52.1089 8.05209 52.1024 8.01947 52.0896 7.98908C52.0769 7.95869 52.0583 7.93112 52.0348 7.90799C52.0114 7.88486 51.9835 7.86663 51.953 7.85435C51.9224 7.84206 51.8897 7.83598 51.8567 7.83645Z" fill="white"/>
<path d="M67.4754 0.570801H64.9286C64.8957 0.570797 64.8631 0.577343 64.8326 0.590057C64.8022 0.602771 64.7747 0.6214 64.7515 0.644861C64.7284 0.668321 64.7102 0.696146 64.6979 0.726717C64.6856 0.757288 64.6795 0.789995 64.68 0.822937V9.83592L64.5237 9.58734C63.7493 8.34086 62.0834 7.53473 60.279 7.53473C57.1674 7.53473 54.0203 9.9318 54.0203 14.5129C54.0203 18.508 56.7234 21.5194 60.3038 21.5194C61.6678 21.5194 63.5895 20.9725 64.5237 19.4384L64.68 19.1827V20.9867C64.6795 21.0197 64.6856 21.0524 64.6979 21.083C64.7102 21.1135 64.7284 21.1414 64.7515 21.1648C64.7747 21.1883 64.8022 21.2069 64.8326 21.2196C64.8631 21.2323 64.8957 21.2389 64.9286 21.2389H67.4754C67.5084 21.2389 67.541 21.2323 67.5714 21.2196C67.6018 21.2069 67.6294 21.1883 67.6525 21.1648C67.6757 21.1414 67.6939 21.1135 67.7062 21.083C67.7185 21.0524 67.7246 21.0197 67.7241 20.9867V0.822937C67.7246 0.789995 67.7185 0.757288 67.7062 0.726717C67.6939 0.696146 67.6757 0.668321 67.6525 0.644861C67.6294 0.6214 67.6018 0.602771 67.5714 0.590057C67.541 0.577343 67.5084 0.570797 67.4754 0.570801ZM64.6338 14.4951C64.6508 15.0114 64.5653 15.5259 64.3821 16.0089C64.1989 16.4918 63.9218 16.9337 63.5667 17.3089C63.2115 17.6841 62.7855 17.9851 62.3133 18.1946C61.841 18.4041 61.3319 18.5178 60.8153 18.5293C58.7338 18.5293 57.1034 16.7537 57.1034 14.4951C57.1034 12.2365 58.7338 10.5178 60.8153 10.5178C61.8467 10.5438 62.8259 10.9767 63.5392 11.7218C64.2526 12.4669 64.6422 13.4639 64.6231 14.4951H64.6338Z" fill="white"/>
<path d="M71.2864 7.83643H73.8296C73.8956 7.83643 73.9588 7.86262 74.0055 7.90923C74.0521 7.95585 74.0783 8.01908 74.0783 8.08501V20.9866C74.0783 21.0525 74.0521 21.1157 74.0055 21.1623C73.9588 21.209 73.8956 21.2352 73.8296 21.2352H71.2864C71.2195 21.2352 71.1553 21.2086 71.108 21.1613C71.0607 21.114 71.0342 21.0499 71.0342 20.983V8.08501C71.0351 8.01876 71.0621 7.95553 71.1093 7.90901C71.1565 7.8625 71.2201 7.83642 71.2864 7.83643Z" fill="white"/>
<path d="M72.5687 0.979558C72.3053 0.973884 72.0435 1.02086 71.7985 1.11772C71.5535 1.21458 71.3303 1.35938 71.1421 1.54362C70.9538 1.72787 70.8043 1.94785 70.7022 2.19065C70.6001 2.43346 70.5475 2.6942 70.5476 2.95758C70.5532 3.48817 70.7692 3.99484 71.1482 4.36637C71.5271 4.73789 72.038 4.9439 72.5687 4.93916C72.8304 4.94248 73.0902 4.89356 73.3327 4.79528C73.5753 4.69701 73.7958 4.55134 73.9814 4.36681C74.1669 4.18229 74.3138 3.9626 74.4134 3.72063C74.513 3.47865 74.5633 3.21924 74.5614 2.95758C74.5658 2.69541 74.5172 2.43506 74.4184 2.19216C74.3196 1.94926 74.1727 1.72882 73.9866 1.54408C73.8005 1.35934 73.579 1.2141 73.3353 1.11709C73.0917 1.02008 72.8309 0.973301 72.5687 0.979558Z" fill="white"/>
<path d="M84.5539 7.54541C83.4385 7.54541 81.4565 8.14557 80.6999 9.74361L80.4548 9.69389V8.08519C80.4548 8.05225 80.4482 8.01963 80.4355 7.98924C80.4228 7.95885 80.4042 7.93128 80.3807 7.90815C80.3572 7.88502 80.3294 7.86679 80.2988 7.8545C80.2683 7.84222 80.2355 7.83614 80.2026 7.83661H77.6593C77.5934 7.83661 77.5301 7.8628 77.4835 7.90942C77.4369 7.95604 77.4107 8.01927 77.4107 8.08519V20.9868C77.4102 21.0197 77.4163 21.0524 77.4286 21.083C77.4409 21.1135 77.4591 21.1414 77.4822 21.1648C77.5054 21.1883 77.5329 21.2069 77.5633 21.2196C77.5937 21.2324 77.6264 21.2389 77.6593 21.2389H80.2026C80.2695 21.2389 80.3336 21.2123 80.3809 21.165C80.4282 21.1178 80.4548 21.0536 80.4548 20.9868V14.2395C80.4548 11.6258 82.2734 10.6882 83.8328 10.6882C85.211 10.6882 86.5998 11.7216 86.5998 14.0264V20.9868C86.5998 21.0536 86.6264 21.1178 86.6737 21.165C86.721 21.2123 86.7852 21.2389 86.852 21.2389H89.4024C89.4693 21.2389 89.5335 21.2123 89.5807 21.165C89.628 21.1178 89.6546 21.0536 89.6546 20.9868V13.7103C89.6475 9.73651 87.836 7.54541 84.5539 7.54541Z" fill="white"/>
<path d="M104.846 7.83705H102.303C102.27 7.83658 102.237 7.84267 102.207 7.85495C102.176 7.86723 102.148 7.88546 102.125 7.90859C102.101 7.93173 102.083 7.95929 102.07 7.98968C102.057 8.02008 102.051 8.05269 102.051 8.08564V9.86125L101.898 9.61266C101.12 8.36618 99.4543 7.56006 97.6357 7.56006C94.5276 7.56006 91.377 9.95713 91.377 14.5382C91.377 18.5333 94.0801 21.5447 97.6641 21.5447C99.0245 21.5447 100.946 20.9979 101.884 19.4637L102.037 19.208V20.9872C102.037 21.0541 102.063 21.1182 102.111 21.1655C102.158 21.2128 102.222 21.2393 102.289 21.2393H104.832C104.865 21.2393 104.898 21.2328 104.928 21.2201C104.959 21.2074 104.986 21.1887 105.009 21.1653C105.032 21.1418 105.051 21.114 105.063 21.0834C105.075 21.0529 105.081 21.0201 105.081 20.9872V8.08564C105.081 8.0221 105.057 7.96093 105.013 7.9147C104.969 7.86847 104.91 7.84068 104.846 7.83705ZM102.005 14.4956C102.022 15.0127 101.936 15.5281 101.752 16.0117C101.568 16.4954 101.29 16.9378 100.934 17.3131C100.578 17.6884 100.15 17.9892 99.6768 18.1981C99.2033 18.407 98.693 18.5197 98.1756 18.5298C96.0941 18.5298 94.4672 16.7542 94.4672 14.4956C94.4672 12.237 96.0941 10.5182 98.1756 10.5182C99.2094 10.5406 100.192 10.9718 100.909 11.7173C101.625 12.4629 102.017 13.4619 101.998 14.4956H102.005Z" fill="white"/>
<path d="M116.451 7.88247C115.871 7.64749 115.251 7.5269 114.625 7.52734C112.934 7.52734 111.705 8.53944 111.073 10.4571L110.846 10.4251V8.08489C110.846 8.05194 110.839 8.01932 110.826 7.98893C110.814 7.95854 110.795 7.93097 110.772 7.90784C110.748 7.88471 110.72 7.86648 110.69 7.85419C110.659 7.84191 110.627 7.83583 110.594 7.8363H108.05C108.017 7.83583 107.985 7.84191 107.954 7.85419C107.923 7.86648 107.896 7.88471 107.872 7.90784C107.849 7.93097 107.83 7.95854 107.817 7.98893C107.805 8.01932 107.798 8.05194 107.798 8.08489V20.9864C107.798 21.0533 107.825 21.1175 107.872 21.1647C107.919 21.212 107.983 21.2386 108.05 21.2386H110.622C110.655 21.2386 110.688 21.232 110.718 21.2193C110.748 21.2066 110.776 21.188 110.799 21.1645C110.822 21.1411 110.84 21.1132 110.853 21.0827C110.865 21.0521 110.871 21.0194 110.871 20.9864V16.5829C110.871 11.3271 112.97 10.5459 114.224 10.5459C114.753 10.5472 115.276 10.656 115.762 10.8655C115.796 10.8813 115.833 10.8896 115.87 10.8896C115.908 10.8896 115.945 10.8813 115.978 10.8655C116.011 10.8483 116.039 10.8241 116.062 10.7946C116.084 10.7652 116.099 10.7311 116.106 10.695L116.611 8.17012C116.623 8.11098 116.614 8.04942 116.584 7.99663C116.555 7.94384 116.508 7.90333 116.451 7.88247Z" fill="white"/>
<path d="M130.564 7.94656C130.541 7.91201 130.51 7.8838 130.473 7.86455C130.436 7.84529 130.395 7.83564 130.354 7.83648H127.615C127.565 7.837 127.516 7.85246 127.474 7.88089C127.432 7.90933 127.4 7.94948 127.381 7.99628L124.067 16.5831L120.721 7.99628C120.702 7.94948 120.67 7.90933 120.628 7.88089C120.586 7.85246 120.537 7.837 120.486 7.83648H117.694C117.654 7.83624 117.613 7.84618 117.577 7.8654C117.542 7.88463 117.511 7.91252 117.488 7.94656C117.465 7.98052 117.451 8.01971 117.446 8.06062C117.442 8.10153 117.448 8.14287 117.464 8.18094L122.436 20.39L119.691 27.5244C119.673 27.5631 119.666 27.6056 119.67 27.6479C119.673 27.6902 119.687 27.7309 119.71 27.7663C119.734 27.8017 119.766 27.8307 119.803 27.8505C119.841 27.8702 119.883 27.8802 119.925 27.8795H122.589C122.639 27.8798 122.688 27.8645 122.73 27.836C122.771 27.8074 122.803 27.7668 122.82 27.7197L130.585 8.18805C130.603 8.1494 130.61 8.10682 130.606 8.06449C130.602 8.02215 130.588 7.98151 130.564 7.94656Z" fill="white"/>
</svg>
