<svg width="45" height="36" viewBox="0 0 45 36" fill="none" xmlns="http://www.w3.org/2000/svg">
<path d="M44.268 14.7909C43.1645 14.0381 40.2658 13.7166 38.1586 14.2924C38.0455 12.1648 36.9622 10.3716 34.9822 8.80687L34.2495 8.30837L33.761 9.05646C32.8008 10.5337 32.3959 12.5026 32.5391 14.2924C32.6522 15.3952 33.0303 16.6344 33.761 17.5337C31.0182 19.1465 28.4894 18.7803 17.2919 18.7803H0.00382783C-0.0463583 21.3433 0.359814 26.2728 3.45262 30.2859C3.79455 30.7294 4.1686 31.1581 4.57545 31.5711C7.0901 34.1233 10.8895 35.9952 16.5706 36C25.2381 36.0081 32.6636 31.2591 37.181 19.778C38.6672 19.8024 42.5911 20.0479 44.5115 16.2871C44.5584 16.224 45 15.2901 45 15.2901L44.268 14.7916V14.7909ZM11.2863 12.4476H6.42497V17.375H11.2863V12.4476ZM17.5663 12.4476H12.7049V17.375H17.5663V12.4476ZM23.8469 12.4476H18.9855V17.375H23.8469V12.4476ZM30.1275 12.4476H25.2662V17.375H30.1275V12.4476ZM5.00571 12.4476H0.144349V17.375H5.00571V12.4476ZM11.2863 6.22415H6.42497V11.1515H11.2863V6.22415ZM17.5663 6.22415H12.7049V11.1515H17.5663V6.22415ZM23.8469 6.22415H18.9855V11.1515H23.8469V6.22415ZM23.8469 0H18.9855V4.92737H23.8469V0Z" fill="#1D63ED"/>
</svg>
