<svg width="107" height="27" viewBox="0 0 107 27" fill="none" xmlns="http://www.w3.org/2000/svg">
<path d="M105.997 23.4382C105.997 24.7227 105 25.7313 103.702 25.7313C102.404 25.7313 101.393 24.7227 101.393 23.4382C101.393 22.1536 102.417 21.1729 103.702 21.1729C104.987 21.1729 105.997 22.1814 105.997 23.4382ZM101.967 23.4382C101.967 24.4467 102.705 25.2477 103.716 25.2477C104.727 25.2477 105.424 24.4467 105.424 23.4524C105.424 22.4581 104.7 21.6286 103.703 21.6286C102.707 21.6286 101.968 22.4439 101.968 23.4382H101.967ZM103.348 24.6264H102.828V22.3611C103.032 22.3197 103.32 22.2919 103.689 22.2919C104.113 22.2919 104.303 22.3611 104.468 22.4581C104.591 22.5544 104.686 22.7341 104.686 22.9553C104.686 23.2042 104.495 23.3975 104.223 23.4802V23.508C104.44 23.5901 104.564 23.7562 104.632 24.0601C104.7 24.4053 104.741 24.5437 104.796 24.6264H104.236C104.168 24.5437 104.126 24.3368 104.058 24.0737C104.017 23.8254 103.881 23.7149 103.593 23.7149H103.348V24.6271V24.6264ZM103.361 23.3418H103.606C103.893 23.3418 104.125 23.2455 104.125 23.0109C104.125 22.8033 103.976 22.6643 103.647 22.6643C103.511 22.6643 103.415 22.6785 103.361 22.6935V23.3418Z" fill="white"/>
<path d="M17.9482 0.512525C17.6268 0.195111 17.241 0.0336914 16.7787 0.0336914C16.3164 0.0336914 15.9192 0.195111 15.6099 0.512525C15.2999 0.829938 15.1482 1.23688 15.1482 1.72182V9.81993C13.5581 8.49127 11.723 7.82118 9.6356 7.82118C7.20939 7.82118 5.13476 8.70695 3.41575 10.4846C1.69673 12.2562 0.843262 14.3994 0.843262 16.9129C0.843262 19.4264 1.70277 21.5636 3.41575 23.3412C5.13476 25.1128 7.20402 26.0046 9.6356 26.0046C12.0672 26.0046 14.1136 25.1189 15.8554 23.3412C17.5745 21.5873 18.4279 19.4448 18.4279 16.9129V1.72182C18.4279 1.23688 18.2702 0.829938 17.9482 0.512525ZM14.7155 19.1036V19.1158C14.429 19.8042 14.0371 20.4085 13.5406 20.9233C13.0441 21.4442 12.459 21.8511 11.7927 22.1563C11.1204 22.4615 10.4072 22.6114 9.64163 22.6114C8.87606 22.6114 8.14538 22.4615 7.47307 22.1563C6.80076 21.8511 6.22172 21.4442 5.73125 20.9294C5.2401 20.4146 4.84893 19.8103 4.56242 19.1219C4.27592 18.4274 4.12965 17.6915 4.12965 16.9129C4.12965 16.1343 4.27592 15.3984 4.56242 14.7039C4.84893 14.0094 5.24077 13.4112 5.73125 12.8964C6.22239 12.3816 6.8068 11.9747 7.47307 11.6695C8.14538 11.3643 8.86466 11.2144 9.64163 11.2144C10.4186 11.2144 11.1204 11.3643 11.7927 11.6695C12.4651 11.9747 13.0441 12.3816 13.5406 12.9025C14.0371 13.4234 14.429 14.0277 14.7155 14.71C15.002 15.3984 15.1482 16.1289 15.1482 16.9068C15.1482 17.6847 15.002 18.4213 14.7155 19.1036Z" fill="white"/>
<path d="M90.5876 13.4235C90.1608 12.3457 89.5107 11.3704 88.6579 10.4962L88.6465 10.4901C86.91 8.71854 84.834 7.82666 82.4266 7.82666C80.0192 7.82666 77.9251 8.71243 76.2061 10.4901C74.4871 12.2616 73.6343 14.4049 73.6343 16.9184C73.6343 19.4319 74.4938 21.569 76.2061 23.3467C77.9251 25.1182 79.995 26.0101 82.4266 26.0101C84.6354 26.0101 86.547 25.2742 88.1728 23.8018C88.4874 23.4667 88.6465 23.0598 88.6465 22.5864C88.6465 22.113 88.4948 21.6945 88.1842 21.3771C87.8748 21.0597 87.483 20.8983 87.0153 20.8983C86.6067 20.9105 86.2437 21.0482 85.9344 21.3235C85.4433 21.7542 84.9112 22.0838 84.3328 22.2995C83.7538 22.5152 83.1224 22.623 82.4333 22.623C81.8248 22.623 81.2403 22.5274 80.6855 22.33C80.1292 22.1327 79.6099 21.8627 79.1476 21.51C78.6793 21.1567 78.2767 20.7382 77.9318 20.2411C77.5869 19.75 77.3239 19.2054 77.1488 18.6072H89.5831C90.0441 18.6072 90.4299 18.4458 90.7519 18.1284C91.074 17.8109 91.2317 17.404 91.2317 16.9191C91.2317 15.6623 91.0143 14.4951 90.5889 13.4235H90.5876ZM77.1361 15.2309C77.3058 14.6382 77.5628 14.0935 77.9077 13.5971C78.2532 13.106 78.6618 12.6815 79.1295 12.3281C79.6032 11.9747 80.1172 11.7055 80.6841 11.5081C81.2504 11.3108 81.8288 11.2151 82.4266 11.2151C83.0244 11.2151 83.6015 11.3108 84.1617 11.5081C84.7233 11.7055 85.2386 11.9747 85.6996 12.3281C86.1679 12.6815 86.5765 13.0999 86.9214 13.5971C87.2717 14.0881 87.536 14.6327 87.7172 15.2309H77.1354H77.1361Z" fill="white"/>
<path d="M105.868 8.96381C105.576 8.67082 105.207 8.44293 104.763 8.27541C104.319 8.10788 103.834 7.99394 103.302 7.92815C102.776 7.86236 102.279 7.83252 101.818 7.83252C100.77 7.83252 99.7887 8.00615 98.8655 8.3534C97.9415 8.70066 97.0881 9.19713 96.3044 9.84348V9.52064C96.3044 9.05402 96.1467 8.65861 95.8247 8.32966C95.5039 8.00072 95.1235 7.8332 94.6739 7.8332C94.2244 7.8332 93.8258 8.00072 93.5051 8.32966C93.1831 8.65861 93.0254 9.06012 93.0254 9.52064V24.3231C93.0254 24.7897 93.1831 25.1851 93.5051 25.5141C93.8258 25.843 94.2116 26.0106 94.6739 26.0106C95.1362 26.0106 95.5093 25.843 95.8247 25.5141C96.1467 25.1851 96.3044 24.7836 96.3044 24.3231V16.9188C96.3044 16.1287 96.4507 15.3867 96.7372 14.6922C97.0237 13.9977 97.4155 13.3995 97.912 12.8847C98.4099 12.3699 98.9943 11.963 99.6599 11.6693C100.332 11.3702 101.046 11.2203 101.812 11.2203C102.579 11.2203 103.302 11.358 103.963 11.6272C104.226 11.7473 104.455 11.807 104.653 11.807C104.881 11.807 105.097 11.7649 105.296 11.6754C105.495 11.5859 105.67 11.4658 105.817 11.3105C105.963 11.1552 106.079 10.9755 106.167 10.7659C106.255 10.5624 106.302 10.3406 106.302 10.1012C106.302 9.63459 106.156 9.25749 105.864 8.96381H105.869H105.868Z" fill="white"/>
<path d="M37.227 13.4294C36.8002 12.3578 36.1628 11.3763 35.304 10.4906C33.5682 8.71903 31.4929 7.82715 29.0841 7.82715C26.6754 7.82715 24.5833 8.71292 22.8643 10.4906C21.1453 12.2621 20.2925 14.4053 20.2925 16.9189C20.2925 19.4324 21.152 21.5695 22.8643 23.3472C24.5833 25.1187 26.6526 26.0106 29.0841 26.0106C31.5157 26.0106 33.5622 25.1248 35.304 23.3472C37.023 21.5933 37.8765 19.4507 37.8765 16.9189C37.8644 15.6621 37.6483 14.501 37.2277 13.4294H37.227ZM34.164 19.1035V19.1157C33.8775 19.8041 33.4857 20.4084 32.9892 20.9232C32.4926 21.4441 31.9076 21.851 31.2413 22.1562C30.575 22.4614 29.8558 22.6113 29.0902 22.6113C28.3246 22.6113 27.5939 22.4614 26.9216 22.1562C26.2493 21.851 25.6703 21.4441 25.1798 20.9293C24.6886 20.4145 24.2975 19.8102 24.011 19.1218C23.7245 18.4273 23.5782 17.6914 23.5782 16.9128C23.5782 16.1342 23.7245 15.3983 24.011 14.7038C24.2975 14.0093 24.6893 13.4111 25.1798 12.8963C25.6709 12.3815 26.2554 11.9746 26.9216 11.6693C27.5939 11.3641 28.3132 11.2143 29.0902 11.2143C29.8672 11.2143 30.569 11.3641 31.2413 11.6693C31.9136 11.9746 32.4926 12.3815 32.9892 12.9024C33.4857 13.4233 33.8775 14.0276 34.164 14.7099C34.4505 15.3983 34.5968 16.1287 34.5968 16.9067C34.5968 17.6846 34.4505 18.4212 34.164 19.1035Z" fill="white"/>
<path d="M72.3942 9.51478C72.3942 9.28757 72.3472 9.0719 72.26 8.86843C72.1721 8.66496 72.0553 8.4798 71.909 8.3238C71.7628 8.16849 71.5877 8.04234 71.389 7.95891C71.1904 7.87549 70.9744 7.82734 70.7463 7.82734C70.4188 7.82734 70.1263 7.91144 69.8693 8.08507L60.4812 14.4001V1.73408C60.4812 1.25525 60.3235 0.85441 60.0021 0.524788C59.6807 0.195844 59.3009 0.0283203 58.8507 0.0283203C58.4005 0.0283203 58.0033 0.195844 57.6812 0.524788C57.3598 0.853731 57.2021 1.25525 57.2021 1.73408V24.2996C57.2021 24.7662 57.3598 25.1678 57.6812 25.5028C58.0026 25.8378 58.3884 26.0054 58.8507 26.0054C59.313 26.0054 59.6867 25.8378 60.0021 25.5028C60.3235 25.1678 60.4812 24.7662 60.4812 24.2996V18.4397L62.3988 17.1409L69.6533 25.5625C69.9458 25.8555 70.3142 25.9993 70.7523 25.9993C70.9804 25.9993 71.1965 25.9572 71.3951 25.8677C71.5937 25.7836 71.7695 25.6581 71.9151 25.5028C72.0614 25.3475 72.1781 25.1678 72.266 24.9582C72.3539 24.7547 72.4002 24.5329 72.4002 24.3118C72.4002 23.8689 72.2486 23.4735 71.9439 23.1269L65.192 15.2682L71.7681 10.8509C72.1888 10.5579 72.3935 10.1089 72.3935 9.50393V9.51614L72.3942 9.51478Z" fill="white"/>
<path d="M44.5989 12.8846C45.1014 12.3698 45.6865 11.9629 46.3588 11.6692C47.0311 11.3701 47.7444 11.2202 48.5099 11.2202C49.1997 11.2202 49.8371 11.3402 50.4275 11.579C51.012 11.8184 51.5736 12.1718 52.105 12.6323C52.4203 12.8893 52.7773 13.0209 53.1745 13.0209C53.6482 13.0209 54.034 12.8595 54.344 12.536C54.654 12.2124 54.8056 11.8055 54.8056 11.3206C54.8056 10.8356 54.6184 10.3866 54.2386 10.0401C52.625 8.56762 50.714 7.83105 48.5099 7.83105C46.0837 7.83105 44.0091 8.71683 42.2901 10.4945C40.5711 12.266 39.7183 14.4092 39.7183 16.9228C39.7183 19.4363 40.5778 21.5734 42.2901 23.3511C44.0091 25.1226 46.0783 26.0145 48.5099 26.0145C50.708 26.0145 52.6196 25.2786 54.2386 23.8055C54.5835 23.4467 54.7593 23.0337 54.7593 22.5548C54.7593 22.076 54.607 21.663 54.2977 21.3456C53.9877 21.0281 53.5965 20.8667 53.1288 20.8667C52.7316 20.8789 52.3861 20.9983 52.0942 21.2255C51.5682 21.6921 51.0187 22.0394 50.4282 22.2727C49.8438 22.506 49.2064 22.62 48.5106 22.62C47.745 22.62 47.0318 22.4701 46.3595 22.171C45.6872 21.8719 45.1028 21.4649 44.5995 20.9562C44.097 20.4476 43.6991 19.8372 43.4126 19.1488C43.1261 18.4542 42.9798 17.7123 42.9798 16.9221C42.9798 16.132 43.1261 15.39 43.4126 14.6955C43.6991 14.001 44.0963 13.4028 44.5995 12.888V12.8819L44.5989 12.8846Z" fill="white"/>
</svg>
