<svg width="123" height="87" viewBox="0 0 123 87" fill="none" xmlns="http://www.w3.org/2000/svg">
<path fill-rule="evenodd" clip-rule="evenodd" d="M40.3836 4.99199C38.6746 7.64539 37.8876 10.9734 37.1231 14.1889C36.5609 16.4826 34.9644 24.3753 34.7845 30.2442C34.4397 30.3192 34.0874 30.3942 33.7276 30.4691C32.266 30.7839 30.7369 31.2337 29.2978 31.7508C29.013 31.8558 28.7356 31.9607 28.4658 32.0657C28.2109 32.1706 27.9561 32.2755 27.7012 32.3805C27.2515 32.5828 26.8243 32.7852 26.442 32.9876L26.4195 33.0101H26.397C25.8574 33.3249 24.2383 34.4717 20.9103 38.7216L20.8878 38.7441L20.8654 38.7666C17.7173 42.7917 13.962 48.3233 9.75706 55.2492C0.650063 70.2026 -0.159447 75.7343 0.0204468 78.6126V78.635C0.0354385 78.785 0.0504303 78.9199 0.0654221 79.0398C0.470177 82.5027 3.10108 84.9537 7.17113 85.6508C9.8695 86.5278 13.22 87 16.9078 87C18.3469 87 19.8535 86.91 21.3826 86.7751C22.1696 86.7077 23.0915 86.6177 24.1034 86.5278C33.5477 85.6958 51.2895 84.2791 51.4694 84.2567L52.2114 84.1892L52.8186 83.7395C62.5102 76.3414 63.0049 74.9473 63.2523 74.2727L64.3991 71.1246L61.0486 70.8547C60.9587 70.8547 51.5593 70.1127 35.9987 68.0439C35.4815 67.9765 34.717 67.954 33.7501 67.954C31.9961 67.954 28.893 68.0664 25.4526 68.4712C25.7374 68.3662 26.0297 68.2763 26.3296 68.2013C28.6682 67.5268 30.6919 65.9977 32.0411 63.9289C34.6496 59.8589 36.1112 56.7108 36.5159 54.3047C36.6059 53.7426 36.8757 52.0786 35.8413 46.2996C35.9163 46.2996 35.9837 46.2996 36.0437 46.2996C36.8307 46.3895 37.7977 46.4795 38.8545 46.4795C45.6004 46.4795 50.3901 42.297 53.4707 33.7072C55.8992 26.8713 58.6201 22.5539 61.5433 20.8674C62.5552 20.2828 63.8819 19.9904 65.4784 19.9904C65.8382 19.9904 66.2055 20.0054 66.5803 20.0354C67.5247 20.1029 68.3792 20.2603 69.0763 20.4177C68.1543 21.4521 67.5022 22.7563 67.2774 24.1954C66.9401 26.6464 66.3779 28.8726 65.8607 30.0644C65.2986 31.3011 64.9613 32.4254 64.6689 33.4148C64.1517 35.1463 63.8369 36.0907 62.8925 36.9452C60.0817 39.5311 57.968 40.8578 56.5738 40.8578C56.2365 40.8578 55.9217 40.7904 55.4495 40.633L51.0646 39.1489L52.144 43.6462C52.2339 43.961 53.021 46.8392 56.7762 47.8511H56.7987C57.8106 48.121 58.8449 48.2559 59.8568 48.2559C59.9468 48.2559 60.4415 48.2784 62.9825 48.4358C64.8488 48.5707 66.288 50.0548 66.3779 51.8987C66.9176 64.4911 66.3554 67.999 66.1306 68.8534C65.6359 69.9778 61.8581 77.6681 60.3515 80.299C59.9243 81.0636 59.4521 81.8281 58.9349 82.6376L56.4614 86.5503H71.977L72.1344 84.1442C72.1344 84.1217 72.2693 82.098 72.4043 79.1073C76.1595 82.1654 79.0378 84.459 79.0827 84.504L80.2295 85.4259L81.6237 84.8863C81.7586 84.8188 85.1541 83.4696 88.572 81.9406C90.6183 80.9961 92.2598 80.1866 93.4066 79.512C94.7333 78.77 97.1618 77.3758 96.5547 75.0147C96.1499 73.3732 90.236 64.0638 88.4146 61.2306C86.0086 57.4753 80.0497 48.3458 76.8341 44.6581C75.4624 43.1065 74.0683 41.7573 72.5842 40.5655C74.2032 38.3619 75.395 36.1357 76.1595 34.4492C77.9584 30.5815 79.2626 23.8581 78.3182 20.665V20.6201L78.2957 20.5976C78.2957 20.5976 78.2283 20.3502 78.0708 19.923C77.7336 19.001 77.3513 18.0791 76.969 17.2021C75.9346 14.841 74.518 11.648 72.2693 9.4443C66.288 3.6428 57.968 0.112432 50.0078 0C49.9328 0 49.8579 0 49.7829 0C45.6454 0 42.4973 1.664 40.3836 4.99199ZM49.9853 2.54097C57.6082 2.6534 65.2986 6.22874 70.4929 11.2657C72.3818 13.1096 73.686 16.0553 74.6304 18.214C75.1026 19.3158 75.4624 20.2378 75.6648 20.7999C75.7997 21.1597 75.8672 21.3846 75.8672 21.3846C76.5418 23.6782 75.5973 29.6146 73.8434 33.3923C73.1463 34.8989 71.4823 38.2494 68.8964 41.0602C70.9876 42.3869 72.9439 44.0734 74.9227 46.3445C80.0047 52.146 93.7214 74.1602 94.0812 75.6219C94.441 77.061 80.6793 82.5027 80.6793 82.5027C80.6793 82.5027 75.6423 78.4776 70.1107 73.9354C69.8633 79.512 69.5935 83.9868 69.5935 83.9868H61.0936C61.6033 83.1923 62.0905 82.3828 62.5552 81.5583C64.1967 78.725 68.4242 70.0902 68.5591 69.7079C69.4136 66.8746 69.1887 57.7676 68.9189 51.7863C68.784 48.6382 66.3104 46.1197 63.1623 45.8948C61.6108 45.8049 60.2166 45.7149 59.8568 45.7149C59.0923 45.7149 58.2828 45.6025 57.4283 45.4001C55.0223 44.7255 54.6175 43.039 54.6175 43.039C55.2246 43.2414 55.8543 43.3988 56.5738 43.3988C58.3727 43.3988 60.7113 42.4319 64.624 38.8341C66.9176 36.6979 66.7602 34.2468 68.1768 31.1212C68.8289 29.6821 69.4361 27.2086 69.8183 24.5777C70.1556 22.2841 72.0895 20.6425 74.3156 20.6425C74.6454 20.6425 74.9827 20.68 75.3275 20.755C74.6754 20.1029 73.4611 19.1135 71.7072 18.5063C71.2575 18.3489 69.2337 17.6968 66.7827 17.4944C66.3629 17.4645 65.9282 17.4495 65.4784 17.4495C63.7245 17.4495 61.8581 17.7418 60.2616 18.6637C55.3596 21.497 52.3913 29.1649 51.0646 32.8527C47.6242 42.4769 42.6997 43.9385 38.8545 43.9385C37.3704 43.9385 36.0662 43.7136 35.0543 43.6687C35.0243 43.6687 34.9943 43.6687 34.9644 43.6687C33.9974 43.6687 33.2104 44.4107 33.143 45.3326C33.128 45.4826 33.1355 45.64 33.1655 45.8049C33.6377 48.3233 34.2673 52.236 33.9974 53.9C33.6152 56.2386 31.8837 59.4541 29.8824 62.5573C28.893 64.0863 27.3864 65.2331 25.6325 65.7503C23.3614 66.3799 21.2251 67.2344 19.5387 68.3363C18.5942 68.9209 14.3668 71.5968 13.0401 74.2502C17.6948 71.4169 28.9155 70.495 33.7501 70.495C34.6046 70.495 35.2567 70.5174 35.6614 70.5849C51.4694 72.6761 60.8687 73.4182 60.8687 73.4182C60.374 74.7674 51.267 81.7157 51.267 81.7157C51.267 81.7157 33.4578 83.1548 23.8785 83.9868C22.8667 84.0768 21.9447 84.1667 21.1352 84.2342C19.6661 84.3691 18.2569 84.4366 16.9078 84.4366C13.3099 84.4366 10.1843 83.9868 7.77827 83.1773C5.14735 82.7726 2.89871 81.4458 2.60638 78.7475C2.59139 78.6425 2.5764 78.5376 2.56141 78.4327C2.33655 74.9698 4.67514 68.5162 11.9383 56.5759C16.8178 48.5482 20.3931 43.5112 22.8667 40.3407C22.8816 40.3257 22.8966 40.3107 22.9116 40.2957C26.2846 36.0008 27.6563 35.2362 27.6563 35.2362C27.9486 35.0788 28.3084 34.8989 28.7356 34.719C28.9455 34.6291 29.1704 34.5392 29.4102 34.4492C29.6501 34.3443 29.9049 34.2468 30.1747 34.1569C31.344 33.7296 32.7832 33.2799 34.2898 32.9426C34.6196 32.8677 34.9569 32.8002 35.3017 32.7402H35.3241C36.471 32.5154 37.2805 31.5485 37.3254 30.4017C37.4828 25.0049 38.9894 17.337 39.5966 14.7736C41.0807 8.63479 42.5648 2.54097 49.7829 2.54097C49.8429 2.54097 49.9103 2.54097 49.9853 2.54097Z" fill="#00042D"/>
<path d="M2.56217 78.4318C2.57716 78.5367 2.59216 78.6417 2.60715 78.7466C2.89947 81.445 5.14811 82.7717 7.77902 83.1764C11.0845 84.2783 15.7842 84.728 21.136 84.2333C21.9455 84.1658 22.8674 84.0759 23.8793 83.986C33.4585 83.154 51.2678 81.7148 51.2678 81.7148C51.2678 81.7148 60.3748 76.0033 60.8695 74.6541C60.8695 74.6541 59.5428 74.3618 57.0468 73.912C55.3603 73.5972 53.1341 73.215 50.3908 72.7652C46.4557 72.1131 41.4862 71.3486 35.6622 70.584C33.0763 70.2243 18.5051 70.9213 13.0409 74.2493C14.3676 71.5959 18.595 68.92 19.5394 68.3129C21.2259 67.2336 23.3621 66.3791 25.6333 65.7495C27.3872 65.2323 28.8938 64.0855 29.8832 62.5564C31.8845 59.4533 33.6159 56.2377 33.9982 53.8991C34.268 52.2351 33.6384 48.3225 33.1662 45.804C33.1362 45.6391 33.1287 45.4817 33.1437 45.3318C33.2337 44.3873 34.0432 43.6228 35.0551 43.6678C38.6979 43.8477 46.2983 46.1863 51.0654 32.8518C52.3921 29.164 55.3603 21.4962 60.2623 18.6629C62.2636 17.5161 64.6697 17.3362 66.7834 17.4936C69.2344 17.696 71.2582 18.3481 71.7079 18.5055C73.4619 19.1126 74.6761 20.102 75.3283 20.7541C74.9835 20.6792 74.6462 20.6417 74.3164 20.6417C72.0902 20.6417 70.1564 22.2832 69.8191 24.5768C69.4368 27.2077 68.8297 29.6812 68.1776 31.1203C66.7609 34.246 66.9183 36.697 64.6247 38.8332C59.1605 43.8702 56.732 43.7577 54.6183 43.0382C54.6183 43.0382 55.023 44.7246 57.4291 45.3992C58.2835 45.6016 59.093 45.714 59.8576 45.714C60.2174 45.714 61.6115 45.804 63.1631 45.8939C66.3112 46.1188 68.7847 48.6373 68.9196 51.7854C69.1895 57.7668 69.4143 66.8738 68.5598 69.7071C68.4249 70.0893 64.1975 78.7241 62.556 81.5574C62.0912 82.3819 61.604 83.1914 61.0943 83.986H69.5942C69.5942 83.986 69.8641 79.5112 70.1114 73.9345C75.6431 78.4768 80.68 82.5018 80.68 82.5018C80.68 82.5018 94.4417 77.0601 94.0819 75.621C93.7222 74.1594 80.0054 52.1452 74.9235 46.3437C72.9447 44.0725 70.9884 42.3861 68.8971 41.0594C71.4831 38.2486 73.1471 34.8981 73.8441 33.3915C75.5981 29.6138 76.5425 23.6773 75.8679 21.3837C75.8679 21.3837 75.8005 21.1589 75.6655 20.7991C75.4632 20.2369 75.1034 19.315 74.6312 18.2131C73.6867 16.0544 72.3825 13.1087 70.4937 11.2648C65.2993 6.22787 57.609 2.65253 49.986 2.5401C42.588 2.42766 41.0814 8.56646 39.5973 14.7727C38.9902 17.3362 37.4836 25.004 37.3262 30.4008C37.2812 31.5476 36.4717 32.5145 35.3249 32.7394H35.3024C34.9576 32.7993 34.6203 32.8668 34.2905 32.9417C32.7839 33.279 31.3448 33.7288 30.1755 34.156C29.9057 34.246 29.6508 34.3434 29.411 34.4483C29.1711 34.5383 28.9463 34.6282 28.7364 34.7182C28.3091 34.8981 27.9494 35.078 27.657 35.2354C27.657 35.2354 26.2854 35.9999 22.9124 40.2948C22.8974 40.3098 22.8824 40.3248 22.8674 40.3398C20.3939 43.5104 16.8186 48.5473 11.939 56.575C4.6759 68.5153 2.3373 74.9689 2.56217 78.4318Z" fill="url(#paint0_linear_3307_608)"/>
<path style="mix-blend-mode:multiply" d="M19.5389 68.3356C21.2254 67.2338 23.3616 66.3793 25.6327 65.7497C27.3866 65.2325 28.8932 64.0857 29.8826 62.5566C31.8839 59.4535 33.6154 56.238 33.9976 53.8994C34.2675 52.2354 33.6379 48.3227 33.1657 45.8042C33.1357 45.6393 33.1282 45.4819 33.1432 45.332C32.5135 47.3783 32.536 50.4365 31.8839 52.3028C28.1512 63.5011 20.2135 67.5261 19.5389 68.3356Z" fill="url(#paint1_linear_3307_608)"/>
<path style="mix-blend-mode:multiply" d="M2.56177 78.4333C2.57676 78.5383 2.59175 78.6432 2.60674 78.7481C2.89907 81.4465 5.14771 82.7732 7.77862 83.178C11.0841 84.2798 15.7838 84.7295 21.1356 84.2348C21.9451 84.1674 22.867 84.0774 23.8789 83.9875C33.4581 83.1555 51.2674 81.7163 51.2674 81.7163C51.2674 81.7163 54.8202 76.9042 57.0464 73.9135C55.3599 73.5987 53.1338 73.2165 50.3904 72.7667C48.3217 75.69 45.241 77.7812 38.7649 78.6582C29.3431 79.9399 22.3723 81.2891 14.0973 80.4346C9.68996 79.9849 6.45192 77.9836 6.78922 75.2402C7.89105 65.5486 17.7851 47.402 22.867 40.3413C20.3935 43.5119 16.8182 48.5489 11.9386 56.5765C4.6755 68.5168 2.3369 74.9704 2.56177 78.4333Z" fill="url(#paint2_linear_3307_608)"/>
<path d="M77.9588 84.2555H33.8179C33.2333 84.2555 32.761 83.7833 32.761 83.1987V82.5466C32.761 81.9619 33.2333 81.5122 33.8179 81.5122H77.9588C78.5434 81.5122 79.0156 81.9619 79.0156 82.5466V83.1987C79.0156 83.7833 78.5434 84.2555 77.9588 84.2555Z" fill="white"/>
<path d="M68.6264 84.2555H23.1364C22.7316 84.2555 22.3943 83.9182 22.3943 83.5135V82.8839C22.3943 82.1193 23.024 81.5122 23.7885 81.5122H68.6264C68.6414 81.5122 68.6489 81.5122 68.6489 81.5122V84.2331C68.6489 84.2481 68.6414 84.2555 68.6264 84.2555Z" fill="white"/>
<path d="M68.6264 84.2555H23.1364C22.7316 84.2555 22.3943 83.9182 22.3943 83.5135V82.8839C22.3943 82.1193 23.024 81.5122 23.7885 81.5122H68.6264C68.6414 81.5122 68.6489 81.5122 68.6489 81.5122V84.2331C68.6489 84.2481 68.6414 84.2555 68.6264 84.2555Z" fill="white"/>
<path d="M102.761 84.2564H50.772C49.7151 84.2564 48.9956 83.1546 49.4228 82.1877L64.7586 46.749C65.0059 46.2094 65.5231 45.8721 66.1302 45.8721H118.119C119.176 45.8721 119.895 46.9514 119.468 47.9408L104.132 83.3569C103.885 83.8966 103.368 84.2564 102.761 84.2564Z" fill="url(#paint3_linear_3307_608)"/>
<path d="M102.761 84.2564H50.772C49.7151 84.2564 48.9956 83.1546 49.4228 82.1877L64.7586 46.749C65.0059 46.2094 65.5231 45.8721 66.1302 45.8721H118.119C119.176 45.8721 119.895 46.9514 119.468 47.9408L104.132 83.3569C103.885 83.8966 103.368 84.2564 102.761 84.2564Z" fill="white"/>
<path d="M105.302 84.2564H53.3135C52.2567 84.2564 51.5371 83.1546 51.9643 82.1877L67.3001 46.749C67.5474 46.2094 68.0646 45.8721 68.6717 45.8721H120.66C121.717 45.8721 122.437 46.9514 122.01 47.9408L106.674 83.3569C106.426 83.8966 105.909 84.2564 105.302 84.2564Z" fill="url(#paint4_linear_3307_608)"/>
<path style="mix-blend-mode:multiply" d="M54.6181 43.0391C54.6181 43.0391 55.8774 45.4226 58.8905 44.8155C64.9619 43.6237 68.8071 39.2389 70.8758 33.7297C72.1575 30.3342 72.6073 27.2761 73.057 25.0049C73.5517 22.3515 75.3281 20.755 75.3281 20.755C74.9833 20.6801 74.646 20.6426 74.3162 20.6426C72.0901 20.6426 70.1562 22.2841 69.8189 24.5777C69.4367 27.2086 68.8295 29.6821 68.1774 31.1212C66.7608 34.2469 66.9182 36.6979 64.6246 38.8341C59.1604 43.8711 56.7318 43.7586 54.6181 43.0391Z" fill="url(#paint5_linear_3307_608)"/>
<path style="mix-blend-mode:multiply" d="M35.0548 43.668C38.6977 43.8479 46.2981 46.1864 51.0652 32.852C52.3919 29.1642 55.3601 21.4963 60.2621 18.6631C62.2634 17.5162 64.6695 17.3364 66.7832 17.4938C53.4937 14.9303 50.8628 24.7344 45.511 33.9988C41.1487 41.5542 36.6964 42.4537 35.0548 43.668Z" fill="url(#paint6_linear_3307_608)"/>
<path d="M42.3623 54.3722C42.5197 51.5838 42.6546 48.7281 42.6321 46.9966C42.6321 46.7493 42.812 46.5469 43.0593 46.5469C43.3067 46.5469 43.5091 46.7268 43.5091 46.9741C43.5316 48.7505 43.3741 51.6288 43.2392 54.4171C43.1043 56.8457 42.9919 59.3866 42.9919 61.0281C42.9919 61.253 42.7895 61.4554 42.5421 61.4554C42.2948 61.4554 42.1149 61.253 42.1149 61.0281C42.1149 59.3641 42.2273 56.9356 42.3623 54.3722Z" fill="url(#paint7_linear_3307_608)"/>
<path d="M53.9877 47.8521C53.9877 47.6047 54.1676 47.4023 54.415 47.4023C54.6623 47.4023 54.8647 47.5822 54.8647 47.8296C54.9097 50.6629 54.7748 53.8335 54.6398 56.9141C54.5724 58.2858 54.5049 59.6125 54.4599 60.8717C54.4599 61.1191 54.2576 61.299 54.0327 61.299C54.0327 61.299 54.0252 61.299 54.0102 61.299C53.7854 61.299 53.583 61.0741 53.583 60.8492C53.628 59.5675 53.6954 58.2408 53.7629 56.8691C53.8978 53.811 54.0327 50.6629 53.9877 47.8521Z" fill="url(#paint8_linear_3307_608)"/>
<defs>
<linearGradient id="paint0_linear_3307_608" x1="99.3453" y1="71.3589" x2="82.6868" y2="-8.34066" gradientUnits="userSpaceOnUse">
<stop stop-color="#FF00C1"/>
<stop offset="1" stop-color="#F4AC24"/>
</linearGradient>
<linearGradient id="paint1_linear_3307_608" x1="44.9166" y1="70.7979" x2="46.0521" y2="44.4503" gradientUnits="userSpaceOnUse">
<stop stop-color="#F4D63B" stop-opacity="0"/>
<stop offset="1" stop-color="#5C1CB2"/>
</linearGradient>
<linearGradient id="paint2_linear_3307_608" x1="1.7327" y1="52.9231" x2="22.1695" y2="115.868" gradientUnits="userSpaceOnUse">
<stop stop-color="#F4D63B" stop-opacity="0"/>
<stop offset="1" stop-color="#5C1CB2"/>
</linearGradient>
<linearGradient id="paint3_linear_3307_608" x1="74.9737" y1="41.9203" x2="64.5061" y2="82.9535" gradientUnits="userSpaceOnUse">
<stop stop-color="#A76DFC"/>
<stop offset="1" stop-color="#5C1CB2"/>
</linearGradient>
<linearGradient id="paint4_linear_3307_608" x1="77.5157" y1="41.9203" x2="67.048" y2="82.9535" gradientUnits="userSpaceOnUse">
<stop stop-color="#A76DFC"/>
<stop offset="1" stop-color="#5C1CB2"/>
</linearGradient>
<linearGradient id="paint5_linear_3307_608" x1="92.7753" y1="51.214" x2="72.7462" y2="6.05384" gradientUnits="userSpaceOnUse">
<stop stop-color="#F4D63B" stop-opacity="0"/>
<stop offset="1" stop-color="#5C1CB2"/>
</linearGradient>
<linearGradient id="paint6_linear_3307_608" x1="42.0214" y1="6.14936" x2="32.6259" y2="47.8905" gradientUnits="userSpaceOnUse">
<stop stop-color="#F4D63B" stop-opacity="0"/>
<stop offset="1" stop-color="#5C1CB2"/>
</linearGradient>
<linearGradient id="paint7_linear_3307_608" x1="-37.2792" y1="48.6856" x2="-36.1156" y2="67.1863" gradientUnits="userSpaceOnUse">
<stop stop-color="#F4AC24"/>
<stop offset="1" stop-color="#FF00C1"/>
</linearGradient>
<linearGradient id="paint8_linear_3307_608" x1="-21.9639" y1="47.7214" x2="-20.8012" y2="66.2118" gradientUnits="userSpaceOnUse">
<stop stop-color="#F4AC24"/>
<stop offset="1" stop-color="#FF00C1"/>
</linearGradient>
</defs>
</svg>
