<svg width="19" height="18" viewBox="0 0 19 18" fill="none" xmlns="http://www.w3.org/2000/svg">
<path d="M9.93408 0C7.54713 0 5.25795 0.948211 3.57012 2.63604C1.88229 4.32387 0.934082 6.61305 0.934082 9C0.934082 11.3869 1.88229 13.6761 3.57012 15.364C5.25795 17.0518 7.54713 18 9.93408 18C12.321 18 14.6102 17.0518 16.298 15.364C17.9859 13.6761 18.9341 11.3869 18.9341 9C18.9341 6.61305 17.9859 4.32387 16.298 2.63604C14.6102 0.948211 12.321 0 9.93408 0ZM12.3063 16.3372H12.2366C12.1842 16.3402 12.1317 16.3324 12.0825 16.3144C12.0332 16.2963 11.9882 16.2684 11.9501 16.2323C11.9149 16.1951 11.8875 16.1512 11.8695 16.1033C11.8514 16.0554 11.8431 16.0044 11.8451 15.9532V14.8988C11.8496 14.5485 11.8526 14.1937 11.8526 13.8368C11.8514 13.5757 11.8132 13.3161 11.7393 13.0658C11.6693 12.8126 11.5283 12.5849 11.3328 12.4095C11.8556 12.359 12.3695 12.2403 12.8613 12.0563C13.2762 11.8985 13.6515 11.6517 13.9608 11.3333C14.2661 11.013 14.4933 10.626 14.6246 10.2037C14.7842 9.68664 14.8602 9.14734 14.8496 8.60625C14.8525 8.22846 14.7864 7.8533 14.6546 7.49925C14.5206 7.1424 14.3181 6.81524 14.0583 6.53625C14.1144 6.39554 14.1551 6.24919 14.1798 6.09975C14.2046 5.94975 14.2173 5.79825 14.2173 5.64675C14.2173 5.45175 14.1948 5.25675 14.1498 5.067C14.109 4.87238 14.0535 4.68109 13.9841 4.49475C13.9576 4.48441 13.9293 4.47931 13.9008 4.47975H13.8183C13.6458 4.48125 13.4763 4.50975 13.3128 4.563C13.1327 4.61557 12.9565 4.68073 12.7856 4.758C12.6156 4.83421 12.45 4.9201 12.2898 5.01525C12.1286 5.1105 11.9861 5.202 11.8601 5.28675C10.5984 4.9351 9.26454 4.9351 8.00283 5.28675C7.86212 5.19268 7.71908 5.10215 7.57383 5.01525C7.41135 4.91931 7.24302 4.83364 7.06983 4.75875C6.89933 4.67892 6.72247 4.61344 6.54108 4.563C6.38081 4.51005 6.21336 4.48198 6.04458 4.47975H5.96208C5.93387 4.47935 5.90585 4.48445 5.87958 4.49475C5.80913 4.68135 5.75149 4.87255 5.70708 5.067C5.66658 5.2575 5.64708 5.45175 5.64633 5.64675C5.64633 5.79825 5.65908 5.94975 5.68458 6.09975C5.70933 6.249 5.74908 6.39525 5.80458 6.53625C5.54552 6.81561 5.34372 7.14303 5.21058 7.5C5.07804 7.85393 5.0112 8.22907 5.01333 8.607C5.00284 9.14518 5.07674 9.68169 5.23233 10.197C5.36808 10.6192 5.59458 11.007 5.89533 11.334C6.20658 11.6505 6.58158 11.8965 6.99483 12.057C7.48458 12.2445 7.99758 12.3645 8.51958 12.414C8.37383 12.5461 8.25822 12.708 8.18058 12.8888C8.10673 13.0675 8.05631 13.2551 8.03058 13.4468C7.75539 13.5785 7.45443 13.6477 7.14933 13.6493C6.86599 13.6606 6.58635 13.5818 6.35058 13.4242C6.12441 13.2566 5.93288 13.0468 5.78658 12.8063C5.72111 12.7052 5.64789 12.6094 5.56758 12.5198C5.48286 12.4254 5.38945 12.3393 5.28858 12.2625C5.18916 12.1882 5.08018 12.1277 4.96458 12.0825C4.85085 12.0326 4.72802 12.0068 4.60383 12.0068C4.57383 12.0075 4.54383 12.0105 4.51383 12.0142C4.47286 12.0141 4.43204 12.0192 4.39233 12.0292C4.35743 12.0384 4.32443 12.0536 4.29483 12.0743C4.28138 12.0817 4.27013 12.0925 4.26222 12.1057C4.25432 12.1189 4.25004 12.1339 4.24983 12.1493C4.25298 12.1853 4.26402 12.2203 4.28216 12.2517C4.3003 12.283 4.32511 12.31 4.35483 12.3307C4.42458 12.3862 4.48233 12.429 4.52883 12.459L4.55133 12.4747C4.65108 12.552 4.74708 12.6353 4.83783 12.7245C4.92183 12.798 4.99758 12.8812 5.06283 12.972C5.13033 13.0612 5.18883 13.1565 5.23608 13.2577C5.29083 13.3582 5.34858 13.4737 5.40933 13.605C5.55033 13.9605 5.80083 14.2612 6.12483 14.4637C6.46458 14.646 6.84558 14.7367 7.23183 14.727C7.36233 14.727 7.49358 14.7195 7.62333 14.7045C7.75233 14.6835 7.88058 14.6617 8.00958 14.6362V15.9435C8.01192 15.9962 8.0031 16.0488 7.98372 16.0979C7.96433 16.147 7.93481 16.1914 7.89708 16.2283C7.85935 16.2651 7.81426 16.2936 7.76476 16.3119C7.71527 16.3302 7.66247 16.3378 7.60983 16.3342H7.56333C5.81436 15.7692 4.32458 14.5984 3.36226 13.0325C2.39993 11.4666 2.02831 9.60852 2.31429 7.79293C2.60028 5.97735 3.52509 4.32353 4.92219 3.12927C6.31928 1.93501 8.09686 1.2788 9.93483 1.2788C11.7728 1.2788 13.5504 1.93501 14.9475 3.12927C16.3446 4.32353 17.2694 5.97735 17.5554 7.79293C17.8414 9.60852 17.4697 11.4666 16.5074 13.0325C15.5451 14.5984 14.0553 15.7692 12.3063 16.3342V16.3372Z" fill="white"/>
</svg>
