<svg width="130" height="15" viewBox="0 0 130 15" fill="none" xmlns="http://www.w3.org/2000/svg">
<path fill-rule="evenodd" clip-rule="evenodd" d="M30.8501 10.7139C31.2145 9.78656 31.3974 8.71042 31.3974 7.48717C31.3974 6.26334 31.2115 5.18744 30.8394 4.25971C30.4676 3.33151 29.9577 2.55112 29.3105 1.91879C28.6631 1.28634 27.9056 0.812287 27.038 0.495946C26.1699 0.179312 25.2472 0.0209961 24.2695 0.0209961C23.319 0.0209961 22.413 0.179312 21.5526 0.495946C20.6914 0.812287 19.9336 1.28634 19.2798 1.91879C18.6255 2.55112 18.1052 3.33151 17.7198 4.25971C17.3341 5.18744 17.1411 6.26334 17.1411 7.48717C17.1411 8.71042 17.3274 9.78656 17.6993 10.7139C18.0713 11.6423 18.5804 12.4191 19.2282 13.0442C19.8752 13.6704 20.6331 14.1409 21.5009 14.457C22.3688 14.7736 23.2913 14.9317 24.2695 14.9317C25.2746 14.9317 26.215 14.7736 27.0894 14.457C27.964 14.1409 28.7183 13.6704 29.3519 13.0442C29.9851 12.4191 30.4847 11.6423 30.8501 10.7139ZM20.7259 9.38406C20.5537 8.82032 20.4678 8.18787 20.4678 7.48717C20.4678 6.79966 20.5537 6.17071 20.7259 5.59974C20.898 5.02936 21.1461 4.54146 21.47 4.13604C21.793 3.73027 22.1894 3.41399 22.658 3.18696C23.126 2.96039 23.6631 2.84699 24.2695 2.84699C24.8615 2.84699 25.3953 2.95689 25.8709 3.17692C26.3455 3.39637 26.7454 3.70951 27.0687 4.11492C27.3922 4.52104 27.6407 5.00859 27.8129 5.57897C27.985 6.14971 28.0712 6.78554 28.0712 7.48717C28.0712 8.18787 27.985 8.82032 27.8129 9.38406C27.6407 9.94802 27.3922 10.4325 27.0687 10.838C26.7454 11.244 26.3455 11.5563 25.8709 11.7761C25.3953 11.9967 24.8615 12.1068 24.2695 12.1068C23.6631 12.1068 23.126 11.9967 22.658 11.7761C22.1894 11.5563 21.793 11.244 21.47 10.838C21.1461 10.4325 20.898 9.94802 20.7259 9.38406Z" fill="white"/>
<path d="M39.502 12.189C39.9565 12.189 40.3317 12.1515 40.6279 12.0753C40.924 12.0001 41.1617 11.8972 41.3406 11.7657C41.5194 11.6356 41.6437 11.481 41.7128 11.3023C41.7817 11.1238 41.8161 10.9242 41.8161 10.7042C41.8161 10.237 41.5954 9.84805 41.1548 9.53912C40.714 9.22948 39.9565 8.8964 38.8823 8.53823C38.4138 8.37385 37.9454 8.18439 37.4771 7.97158C37.0088 7.75878 36.5887 7.49057 36.2169 7.16728C35.8454 6.84435 35.5421 6.45247 35.308 5.9914C35.0737 5.53115 34.9567 4.97115 34.9567 4.31105C34.9567 3.65095 35.0806 3.05642 35.3285 2.52722C35.5767 1.99778 35.9277 1.54792 36.3825 1.17619C36.8369 0.804787 37.3875 0.520166 38.0349 0.320328C38.6824 0.121353 39.4122 0.0209961 40.2252 0.0209961C41.1892 0.0209961 42.0228 0.124806 42.7253 0.330699C43.4273 0.536884 44.006 0.764116 44.4605 1.01154L43.531 3.54805C43.1312 3.3419 42.6869 3.15955 42.1983 3.00123C41.7092 2.8435 41.1204 2.76393 40.432 2.76393C39.6603 2.76393 39.1059 2.87127 38.7685 3.08407C38.4311 3.2971 38.2621 3.62388 38.2621 4.06337C38.2621 4.32493 38.3244 4.5452 38.4484 4.72347C38.572 4.9022 38.748 5.06367 38.975 5.20822C39.2024 5.3523 39.4641 5.48332 39.7606 5.59975C40.0561 5.71689 40.3835 5.83682 40.742 5.96048C41.4854 6.23593 42.1328 6.5073 42.684 6.7754C43.2347 7.04362 43.6929 7.35652 44.058 7.71375C44.4226 8.0711 44.6947 8.49063 44.8742 8.972C45.0527 9.45349 45.1425 10.0375 45.1425 10.7243C45.1425 12.0581 44.674 13.0928 43.7373 13.828C42.8007 14.564 41.3889 14.9319 39.502 14.9319C38.8685 14.9319 38.2967 14.8939 37.7871 14.8183C37.2775 14.7422 36.8265 14.6496 36.4339 14.5398C36.0415 14.4299 35.7038 14.3131 35.4212 14.1895C35.139 14.0654 34.9015 13.9489 34.7085 13.8384L35.618 11.2815C36.0444 11.5157 36.5714 11.725 37.1986 11.9101C37.825 12.0961 38.5931 12.189 39.502 12.189Z" fill="white"/>
<path d="M59.3422 0.351562V3.09456H55.0239V14.6428H51.801V3.09456H47.4824V0.351562H59.3422Z" fill="white"/>
<path d="M62.9224 14.6431H66.1456V0.351562H62.9224V14.6431Z" fill="white"/>
<path d="M80.573 14.6428C79.6503 13.0069 78.6523 11.3918 77.5778 9.79647C76.5022 8.20152 75.3594 6.69629 74.1477 5.28008V14.6428H70.9658V0.351562H73.5897C74.0438 0.804871 74.5468 1.36171 75.0979 2.02181C75.6489 2.68191 76.2091 3.38669 76.7823 4.13581C77.353 4.88504 77.9215 5.66181 78.4864 6.46588C79.0513 7.27006 79.5809 8.04321 80.0775 8.78579V0.351562H83.2798V14.6428H80.573Z" fill="white"/>
<path d="M95.0826 2.82654C93.5821 2.82654 92.497 3.24234 91.8285 4.07405C91.1601 4.906 90.827 6.04327 90.827 7.48737C90.827 8.18784 90.9094 8.82425 91.0741 9.39464C91.2401 9.96479 91.4884 10.4562 91.8179 10.8688C92.1486 11.2815 92.5617 11.6013 93.0584 11.8282C93.5538 12.0549 94.1317 12.1683 94.7931 12.1683C95.1508 12.1683 95.458 12.1613 95.7134 12.1477C95.9676 12.1342 96.1912 12.1068 96.3842 12.0653V7.09549H99.6076V14.1689C99.2216 14.3203 98.6026 14.4815 97.7482 14.653C96.8938 14.8247 95.8405 14.9112 94.5871 14.9112C93.5126 14.9112 92.5382 14.7459 91.6638 14.4163C90.7882 14.0859 90.0409 13.6051 89.4218 12.9725C88.8028 12.3404 88.3238 11.5632 87.986 10.6422C87.6483 9.72165 87.48 8.66979 87.48 7.48737C87.48 6.29096 87.6659 5.23244 88.0378 4.31101C88.4097 3.39027 88.9181 2.60942 89.5666 1.97032C90.2139 1.33111 90.9741 0.846588 91.8497 0.516702C92.7241 0.186523 93.6574 0.0209961 94.6483 0.0209961C95.3238 0.0209961 95.9334 0.0662628 96.4772 0.155373C97.0209 0.245054 97.4893 0.348001 97.8823 0.465076C98.2742 0.581579 98.5991 0.701828 98.8533 0.825833C99.1086 0.949546 99.2899 1.04615 99.4005 1.11478L98.4708 3.6922C98.0306 3.45864 97.5234 3.25622 96.9526 3.08402C96.3807 2.91217 95.7581 2.82654 95.0826 2.82654Z" fill="white"/>
<path d="M104.117 14.6428V0.351562H113.786V3.05303H107.341V5.85734H113.064V8.49739H107.341V11.9414H114.262V14.6428H104.117Z" fill="white"/>
<path fill-rule="evenodd" clip-rule="evenodd" d="M127.284 1.33051C126.141 0.567255 124.495 0.186035 122.346 0.186035C121.754 0.186035 121.082 0.213429 120.332 0.268799C119.582 0.323294 118.854 0.420185 118.153 0.556871V14.6425H121.375V9.42449H122.966C123.243 9.75501 123.519 10.1226 123.796 10.5286C124.073 10.934 124.354 11.3631 124.636 11.8171C124.92 12.2709 125.195 12.7386 125.466 13.2197C125.734 13.701 126.001 14.175 126.264 14.6425H129.866C129.619 14.1203 129.351 13.5876 129.061 13.0441C128.772 12.5013 128.473 11.9791 128.162 11.4774C127.853 10.9756 127.538 10.4943 127.222 10.0335C126.905 9.57301 126.603 9.1641 126.313 8.80628C127.182 8.44928 127.846 7.95729 128.307 7.33208C128.769 6.70663 128.999 5.89136 128.999 4.88815C128.999 3.27931 128.427 2.09363 127.284 1.33051ZM121.902 2.9495C122.088 2.93596 122.298 2.92896 122.532 2.92896C123.565 2.92896 124.347 3.07689 124.877 3.37194C125.408 3.66839 125.673 4.16609 125.673 4.86738C125.673 5.59643 125.412 6.11233 124.888 6.41426C124.364 6.71701 123.497 6.86751 122.285 6.86751H121.375V2.99068C121.541 2.9775 121.716 2.96361 121.902 2.9495Z" fill="white"/>
<path d="M9.59292 0.467285H12.8354V14.7083H9.59292V8.66667H4.14742V14.7083H0.904785V0.467285H4.14742V5.91263H9.59292V0.467285Z" fill="white"/>
</svg>
