<svg width="16" height="16" viewBox="0 0 16 16" fill="none" xmlns="http://www.w3.org/2000/svg">
<path d="M7.93392 5.70933C7.63306 5.70933 7.33515 5.76859 7.05719 5.88372C6.77924 5.99885 6.52668 6.16761 6.31394 6.38035C6.1012 6.59309 5.93245 6.84564 5.81731 7.1236C5.70218 7.40156 5.64292 7.69947 5.64292 8.00033C5.64292 8.30119 5.70218 8.5991 5.81731 8.87706C5.93245 9.15501 6.1012 9.40757 6.31394 9.62031C6.52668 9.83305 6.77924 10.0018 7.05719 10.1169C7.33515 10.2321 7.63306 10.2913 7.93392 10.2913C8.54153 10.2913 9.12426 10.05 9.5539 9.62031C9.98355 9.19066 10.2249 8.60794 10.2249 8.00033C10.2249 7.39272 9.98355 6.80999 9.5539 6.38035C9.12426 5.9507 8.54153 5.70933 7.93392 5.70933ZM7.93392 4.18133C8.44071 4.17313 8.94406 4.26586 9.41464 4.45413C9.88523 4.6424 10.3136 4.92243 10.6749 5.27792C11.0362 5.6334 11.3231 6.05723 11.519 6.52471C11.7149 6.99219 11.8157 7.49398 11.8157 8.00083C11.8157 8.50768 11.7149 9.00946 11.519 9.47694C11.3231 9.94442 11.0362 10.3683 10.6749 10.7237C10.3136 11.0792 9.88523 11.3593 9.41464 11.5475C8.94406 11.7358 8.44071 11.8285 7.93392 11.8203C6.92079 11.8203 5.94916 11.4179 5.23277 10.7015C4.51639 9.98509 4.11392 9.01346 4.11392 8.00033C4.11392 6.9872 4.51639 6.01557 5.23277 5.29918C5.94916 4.58279 6.92079 4.18133 7.93392 4.18133ZM12.8989 3.99033C12.9031 4.11827 12.8814 4.24575 12.8353 4.36517C12.7892 4.48459 12.7196 4.59353 12.6305 4.6855C12.5415 4.77747 12.4349 4.8506 12.317 4.90055C12.1991 4.95049 12.0724 4.97623 11.9444 4.97623C11.8164 4.97623 11.6897 4.95049 11.5718 4.90055C11.454 4.8506 11.3473 4.77747 11.2583 4.6855C11.1693 4.59353 11.0996 4.48459 11.0535 4.36517C11.0074 4.24575 10.9858 4.11827 10.9899 3.99033C10.9899 3.73705 11.0905 3.49414 11.2696 3.31504C11.4487 3.13594 11.6916 3.03533 11.9449 3.03533C12.1982 3.03533 12.4411 3.13594 12.6202 3.31504C12.7993 3.49414 12.8989 3.73705 12.8989 3.99033ZM7.93392 1.89033C6.04392 1.89033 5.73592 1.89433 4.85692 1.93333C4.25692 1.96233 3.85592 2.04233 3.48292 2.18733C3.15192 2.31533 2.91292 2.46933 2.65792 2.72433C2.41792 2.95533 2.23492 3.23733 2.11992 3.54933C1.97492 3.92333 1.89492 4.32433 1.86692 4.92333C1.82692 5.76633 1.82292 6.06133 1.82292 8.00033C1.82292 9.89033 1.82792 10.1993 1.86692 11.0783C1.89592 11.6763 1.97592 12.0783 2.11992 12.4513C2.24992 12.7833 2.40292 13.0223 2.65692 13.2763C2.91392 13.5323 3.15292 13.6863 3.48192 13.8133C3.85892 13.9593 4.26092 14.0403 4.85692 14.0673C5.69992 14.1073 5.99492 14.1113 7.93392 14.1113C9.82392 14.1113 10.1329 14.1063 11.0119 14.0673C11.6089 14.0393 12.0119 13.9593 12.3849 13.8143C12.7149 13.6853 12.9559 13.5323 13.2099 13.2783C13.4669 13.0203 13.6199 12.7813 13.7469 12.4533C13.8929 12.0763 13.9739 11.6733 14.0009 11.0783C14.0409 10.2353 14.0449 9.94033 14.0449 8.00033C14.0449 6.11033 14.0399 5.80233 14.0009 4.92333C13.9729 4.32533 13.8929 3.92233 13.7469 3.54933C13.6318 3.23765 13.4483 2.95574 13.2099 2.72433C12.979 2.48503 12.697 2.3011 12.3849 2.18633C12.0109 2.04133 11.6089 1.96133 11.0119 1.93333C10.1689 1.89333 9.87392 1.89033 7.93392 1.89033ZM7.93392 0.361328C10.0099 0.361328 10.2689 0.369328 11.0829 0.407328C11.8969 0.445328 12.4499 0.573328 12.9379 0.762328C13.4419 0.956328 13.8669 1.21933 14.2909 1.64333C14.6799 2.02533 14.9809 2.48733 15.1719 2.99733C15.3609 3.48333 15.4889 4.03733 15.5269 4.85133C15.5629 5.66633 15.5729 5.92533 15.5729 8.00133C15.5729 10.0763 15.5649 10.3353 15.5269 11.1493C15.4889 11.9633 15.3609 12.5163 15.1719 13.0043C14.9809 13.5143 14.6799 13.9763 14.2919 14.3573C13.9098 14.7457 13.4478 15.0463 12.9379 15.2383C12.4509 15.4273 11.8959 15.5553 11.0829 15.5933C10.2689 15.6293 10.0099 15.6393 7.93392 15.6393C5.85892 15.6393 5.59992 15.6313 4.78492 15.5933C3.97192 15.5553 3.41792 15.4273 2.93092 15.2383C2.42083 15.0472 1.95871 14.7469 1.57692 14.3583C1.18864 13.9763 0.888328 13.5143 0.696922 13.0043C0.506922 12.5173 0.378922 11.9623 0.340922 11.1493C0.304922 10.3353 0.294922 10.0763 0.294922 8.00033C0.294922 5.92533 0.302922 5.66633 0.340922 4.85133C0.378922 4.03733 0.506922 3.48433 0.695922 2.99733C0.887922 2.48733 1.18792 2.02533 1.57692 1.64333C1.95879 1.25489 2.42089 0.954561 2.93092 0.763328C3.41792 0.573328 3.97092 0.445328 4.78492 0.407328C5.59992 0.371328 5.85892 0.361328 7.93492 0.361328H7.93392Z" fill="white"/>
</svg>
