<svg width="19" height="18" viewBox="0 0 19 18" fill="none" xmlns="http://www.w3.org/2000/svg">
<path d="M6.55936 14.8711H4.09842V6.92578H6.55936V14.8711ZM6.8049 4.39439C6.8049 3.59885 6.15945 2.95312 5.36432 2.95312C4.56616 2.95312 3.92236 3.59885 3.92236 4.39439C3.92236 5.19022 4.56616 5.83594 5.36432 5.83594C6.15945 5.83594 6.8049 5.19022 6.8049 4.39439ZM15.77 10.4999C15.77 8.36705 15.3194 6.78516 12.8279 6.78516C11.6306 6.78516 10.827 7.38391 10.4989 8.00656H10.4966V6.92578H8.10596V14.8711H10.4966V10.9262C10.4966 9.89305 10.7596 8.8922 12.0402 8.8922C13.3033 8.8922 13.3442 10.0736 13.3442 10.9918V14.8711H15.77V10.4999ZM18.9341 15.8906V2.10938C18.9341 0.946198 17.9879 0 16.8247 0H3.04346C1.88028 0 0.934082 0.946198 0.934082 2.10938V15.8906C0.934082 17.0538 1.88028 18 3.04346 18H16.8247C17.9879 18 18.9341 17.0538 18.9341 15.8906ZM16.8247 1.40625C17.2124 1.40625 17.5278 1.72169 17.5278 2.10938V15.8906C17.5278 16.2783 17.2124 16.5938 16.8247 16.5938H3.04346C2.65578 16.5938 2.34033 16.2783 2.34033 15.8906V2.10938C2.34033 1.72169 2.65578 1.40625 3.04346 1.40625H16.8247Z" fill="white"/>
</svg>
