<svg width="27" height="24" viewBox="0 0 27 24" fill="none" xmlns="http://www.w3.org/2000/svg">
<path d="M13.485 14.3832C14.8154 14.3832 15.894 13.3042 15.894 11.9731C15.894 10.642 14.8154 9.56299 13.485 9.56299C12.1545 9.56299 11.0759 10.642 11.0759 11.9731C11.0759 13.3042 12.1545 14.3832 13.485 14.3832Z" fill="#00D8FF"/>
<path d="M13.4849 17.4943C10.1017 17.4943 7.14555 17.0958 4.93326 16.3373C3.49839 15.8476 2.27947 15.1946 1.41087 14.4505C0.489487 13.6631 0 12.8037 0 11.9731C0 10.3792 1.7468 8.81889 4.67892 7.80107C7.07836 6.9657 10.2072 6.5 13.4801 6.5C16.6953 6.5 19.781 6.95129 22.1661 7.77707C23.5625 8.25717 24.7383 8.8813 25.5733 9.57265C26.4803 10.3312 26.9602 11.1618 26.9602 11.9731C26.9602 13.6295 25.007 15.305 21.8589 16.3469C19.6323 17.0862 16.6569 17.4943 13.4849 17.4943ZM13.4849 7.65224C10.38 7.65224 7.30871 8.10354 5.06283 8.8861C2.36585 9.8271 1.15653 11.1138 1.15653 11.9731C1.15653 12.8661 2.45703 14.2728 5.30757 15.2474C7.39989 15.9628 10.2312 16.3421 13.4849 16.3421C16.537 16.3421 19.3827 15.958 21.499 15.2522C24.4599 14.268 25.8132 12.8613 25.8132 11.9731C25.8132 11.5171 25.4677 10.9793 24.8391 10.456C24.1144 9.8511 23.0587 9.29899 21.7966 8.8621C19.5267 8.08433 16.5754 7.65224 13.4849 7.65224Z" fill="#00D8FF"/>
<path d="M8.01911 23.9852C7.52962 23.9852 7.09772 23.8796 6.733 23.6684C5.35572 22.8714 4.87583 20.5765 5.4565 17.5279C5.93159 15.0266 7.09292 12.0883 8.72934 9.25095C10.337 6.46636 12.2661 4.01785 14.1713 2.3615C15.2846 1.3917 16.4124 0.681146 17.4297 0.306667C18.5383 -0.101419 19.4981 -0.101419 20.1987 0.301866C21.6336 1.12764 22.1087 3.66257 21.4368 6.90806C20.9617 9.21254 19.8292 11.9923 18.2455 14.7433C16.5563 17.6719 14.7328 20.034 12.9716 21.5751C11.8294 22.5738 10.6537 23.3035 9.57875 23.6828C9.01728 23.8844 8.4894 23.9852 8.01911 23.9852ZM9.22363 9.53901L9.72271 9.82707C8.17267 12.5156 7.02574 15.401 6.58424 17.7439C6.05156 20.5525 6.56504 22.2425 7.30407 22.6698C7.48643 22.7754 7.72637 22.833 8.01911 22.833C8.97409 22.833 10.4761 22.2281 12.2133 20.711C13.8786 19.2563 15.6206 16.9902 17.2474 14.172C18.7734 11.5266 19.858 8.86687 20.3091 6.68241C20.9377 3.62416 20.3955 1.75177 19.6228 1.30528C19.2293 1.07963 18.5911 1.10844 17.8232 1.3917C16.9354 1.71816 15.9325 2.3567 14.9247 3.23528C13.1155 4.81001 11.268 7.15291 9.72271 9.83187L9.22363 9.53901Z" fill="#00D8FF"/>
<path d="M18.9511 24.0001C17.6458 24.0001 15.9902 23.2127 14.2626 21.7244C12.3334 20.0633 10.3707 17.5908 8.72946 14.7534C7.11704 11.9688 5.9653 9.07377 5.48061 6.59165C5.19748 5.14175 5.14469 3.81187 5.32705 2.74124C5.5286 1.5746 6.00369 0.744021 6.70913 0.335935C8.1392 -0.494639 10.5722 0.35994 13.0485 2.5636C14.8049 4.12393 16.6476 6.49563 18.2361 9.24181C19.9301 12.1704 21.0674 14.931 21.5185 17.2259C21.8112 18.7142 21.8592 20.0969 21.6529 21.2203C21.4321 22.4158 20.933 23.2656 20.2132 23.6832C19.8533 23.8945 19.4262 24.0001 18.9511 24.0001ZM9.72763 14.1772C11.2825 16.8658 13.2116 19.2999 15.016 20.8506C17.1803 22.7134 18.8983 23.1167 19.6421 22.6846C20.4148 22.2381 20.981 20.409 20.3956 17.4515C19.9637 15.2815 18.8743 12.6409 17.2427 9.82273C15.7118 7.17737 13.9507 4.9065 12.2854 3.42779C9.95318 1.35375 8.06242 0.888051 7.28979 1.33455C6.89629 1.56019 6.60355 2.13151 6.46439 2.93808C6.30602 3.86948 6.35401 5.06013 6.61315 6.3708C7.07385 8.7281 8.17759 11.4983 9.72763 14.1772Z" fill="#00D8FF"/>
</svg>
