<svg width="62" height="31" viewBox="0 0 62 31" fill="none" xmlns="http://www.w3.org/2000/svg">
<path fill-rule="evenodd" clip-rule="evenodd" d="M40.2995 10.3975L59.7506 9.07535C61.0598 9.07535 61.9949 10.3975 61.2468 11.3419L47.5937 30.2299C47.2196 30.4187 46.8455 30.7965 46.2845 30.7965H15.6116C15.379 30.7681 15.1563 30.6849 14.9614 30.5537C14.7665 30.4224 14.6048 30.2468 14.4894 30.041L0.83626 11.3419C0.0881414 10.3975 0.83626 8.88647 2.14547 9.07535L21.5965 10.3975L29.8258 1.33129C30.3869 0.575769 31.6961 0.575769 32.0702 1.33129L40.2995 10.2086V10.3975ZM44.4142 27.7744L31.6961 23.0524V27.7744H44.4142ZM30.1999 27.7744V23.0524L17.4819 27.7744H30.3869H30.1999ZM28.7037 22.108L15.7986 26.83L6.44715 13.6085L28.8907 21.9192L28.7037 22.108ZM33.1924 22.108L46.2845 26.83L55.6359 13.6085L33.1924 21.9192V22.108ZM30.1999 20.9748V5.29776L19.7262 17.0083L30.1999 20.7859V20.9748ZM31.6961 20.9748V5.29776L42.3568 17.0083L31.6961 20.7859V20.9748ZM16.5467 15.875L18.9781 13.2307L7.00824 12.4752L16.5467 15.875ZM45.3493 15.875L42.9179 13.2307L54.7008 12.4752L45.3493 15.875Z" fill="#006CFF"/>
</svg>
