<svg width="30" height="15" viewBox="0 0 30 15" fill="none" xmlns="http://www.w3.org/2000/svg">
<g clip-path="url(#clip0_3307_1750)">
<path fill-rule="evenodd" clip-rule="evenodd" d="M19.1412 5.40345L28.5551 4.80439C29.1887 4.80439 29.6413 5.40345 29.2793 5.83136L22.6714 14.3895C22.4904 14.4751 22.3093 14.6462 22.0378 14.6462H7.19275C7.08019 14.6333 6.97241 14.5956 6.87808 14.5362C6.78375 14.4767 6.7055 14.3972 6.64963 14.3039L0.0417865 5.83136C-0.320287 5.40345 0.0417865 4.71881 0.675416 4.80439L10.0893 5.40345L14.0721 1.29556C14.3437 0.953237 14.9773 0.953237 15.1584 1.29556L19.1412 5.31787V5.40345ZM21.1326 13.2769L14.9773 11.1374V13.2769H21.1326ZM14.2532 13.2769V11.1374L8.09793 13.2769H14.3437H14.2532ZM13.529 10.7095L7.28326 12.849L2.75734 6.85833L13.6196 10.6239L13.529 10.7095ZM15.7015 10.7095L22.0378 12.849L26.5637 6.85833L15.7015 10.6239V10.7095ZM14.2532 10.196V3.09276L9.18415 8.39879L14.2532 10.1104V10.196ZM14.9773 10.196V3.09276L20.1369 8.39879L14.9773 10.1104V10.196ZM7.64534 7.88531L8.82208 6.68717L3.0289 6.34485L7.64534 7.88531ZM21.5852 7.88531L20.4084 6.68717L26.1111 6.34485L21.5852 7.88531Z" fill="#006CFF"/>
</g>
<defs>
<clipPath id="clip0_3307_1750">
<rect width="28.9659" height="13.693" fill="white" transform="translate(0.20459 0.90625)"/>
</clipPath>
</defs>
</svg>
