<svg width="114" height="26" viewBox="0 0 114 26" fill="none" xmlns="http://www.w3.org/2000/svg">
<path fill-rule="evenodd" clip-rule="evenodd" d="M11.0594 20.9606L11.6189 20.2166C11.9918 20.0306 11.9918 19.6586 11.9918 19.2866C11.9918 18.9146 11.9918 18.5426 11.4324 18.1706C11.2459 17.7986 10.8729 17.6126 10.3135 17.4267C8.48549 17.027 6.68021 16.5303 4.90534 15.9387L2.85398 14.6367C2.10804 14.2647 1.73506 13.7067 1.36208 13.1487L0.802623 10.9168C0.802623 9.98678 0.989109 9.24279 1.36208 8.6848C1.73506 7.94081 2.29452 7.19683 3.04047 6.82483C3.59993 6.26684 4.53236 5.70885 5.27831 5.52285C7.03163 4.92763 8.93311 4.92763 10.6864 5.52285C11.4324 5.52285 12.1783 5.89485 12.9243 6.45284L14.4162 7.94081C14.9756 8.49881 15.1621 9.24279 15.3486 9.80078L11.4324 10.9168C11.4324 10.3588 10.8729 9.80078 10.3135 9.42879C9.66786 8.94586 8.88262 8.6848 8.07562 8.6848C7.30944 8.59654 6.53383 8.72547 5.83777 9.05679L5.09182 9.80078L4.71885 10.7308L5.09182 11.6607L6.02426 12.4047L7.14318 12.7767L8.2621 13.1487L11.9918 14.2647L14.4162 15.5667C14.9756 16.1247 15.3486 16.6827 15.5351 17.4267C15.9081 17.7986 15.9081 18.5426 15.9081 19.2866C15.9081 20.2166 15.9081 21.1466 15.3486 21.7046C14.9756 22.4486 14.4162 23.1926 13.6702 23.7505C12.9243 24.3085 11.9918 24.8665 11.0594 25.0525C10.127 25.4245 9.00805 25.6105 7.88912 25.6105C6.02426 25.6105 4.53236 25.2385 3.04047 24.3085C1.73506 23.3786 0.802625 22.4486 0.243164 20.9606L3.9729 19.4726C4.34588 20.4026 4.90534 20.9606 5.65129 21.3326C6.21075 21.7046 7.14318 21.8906 8.07562 21.8906C9.19454 21.8906 9.94048 21.5186 10.8729 20.9606H11.0594ZM29.7081 25.0525L26.1648 25.7965C25.0459 25.7965 24.1135 25.7965 23.1811 25.2385C22.2486 24.8665 21.5027 24.1225 20.9432 23.1926C20.3837 22.2626 20.1973 20.7746 20.1973 18.9146V9.61479H16.654V5.33686H17.5864C18.7054 5.33686 19.8243 5.15086 20.3837 4.03488C20.7567 3.66289 20.7567 3.10489 20.7567 1.80292V0.314941H24.4865V5.33686H28.5892V9.80078H24.3V21.1466L25.2324 22.0766L26.7243 22.2626H28.9621L29.7081 25.0525ZM42.7622 9.05679L42.2027 8.6848H41.2703L40.7108 8.4988C39.1486 8.46675 37.6267 8.99472 36.4216 9.98678L35.3027 11.4748C34.9297 12.0327 34.9297 12.7767 34.9297 13.3347V25.7965H30.6405V5.33686H33.9973L34.7432 7.75482C35.3027 6.82483 36.0486 6.26684 36.9811 5.89485C38.0663 5.29588 39.2841 4.97624 40.5243 4.96486L43.6946 5.33686L42.5757 9.05679H42.7622ZM53.3919 25.6105C51.3354 25.605 49.3247 25.0046 47.6035 23.8821C45.8822 22.7597 44.5244 21.1633 43.6946 19.2866C43.1352 17.9846 42.7622 16.6827 42.7622 15.1947C42.7643 13.1906 43.346 11.2298 44.4376 9.54722C45.5291 7.86468 47.0842 6.53194 48.9162 5.70885C51.3696 4.72598 54.1088 4.72598 56.5622 5.70885C57.6811 6.08084 58.8001 6.82483 59.546 7.75482C60.4784 8.6848 61.2244 9.98678 61.5974 11.4748C62.1568 13.1487 62.3433 14.8227 62.3433 17.0547H47.2379C47.2379 17.7986 47.6108 18.3566 48.1703 18.9146C48.9761 20.1658 50.1479 21.1397 51.5271 21.7046L53.9514 22.0766C55.889 22.0791 57.7553 21.3478 59.173 20.0306L61.7838 22.4486C60.6989 23.4287 59.4318 24.187 58.0541 24.6805C56.7487 25.2385 55.0703 25.6105 53.3919 25.6105ZM52.646 8.4988C52.0865 8.4988 51.3406 8.49881 50.7811 8.8708C49.5874 9.40902 48.6044 10.3241 47.9838 11.4748C47.6108 12.0327 47.2379 12.7767 47.2379 13.3347H57.8676C57.8676 12.7767 57.8676 12.2187 57.4946 11.4748C57.0709 10.5173 56.3579 9.71573 55.4551 9.18217C54.5524 8.64861 53.505 8.40969 52.4595 8.4988H52.646ZM84.3488 5.33686V25.6105H80.992L80.246 22.8206C79.6866 23.7505 78.7542 24.4945 77.6352 24.8665C76.5163 25.4245 75.3974 25.6105 74.2785 25.6105C72.9265 25.637 71.5835 25.3866 70.3326 24.8747C69.0816 24.3629 67.9492 23.6004 67.0055 22.6346C65.0466 20.6511 63.9486 17.9788 63.9486 15.1947C63.9486 12.4106 65.0466 9.73825 67.0055 7.75482C67.962 6.80613 69.0968 6.05496 70.3448 5.5443C71.5928 5.03364 72.9295 4.77353 74.2785 4.77887C75.3974 4.77887 76.5163 5.15086 77.4487 5.52285C78.5677 5.89485 79.5001 6.63883 80.246 7.38282L80.992 5.33686H84.5352H84.3488ZM74.2785 22.0766L76.5163 21.5186C77.2623 21.1466 78.0082 20.5886 78.3812 20.0306C79.5942 18.7122 80.2606 16.984 80.246 15.1947C80.2255 13.4119 79.5637 11.6958 78.3812 10.3588C78.0082 9.80078 77.2623 9.24279 76.5163 8.8708C75.7923 8.51055 74.9943 8.32303 74.1852 8.32303C73.3761 8.32303 72.5781 8.51055 71.8541 8.8708L69.9893 10.3588C68.7763 11.6772 68.1098 13.4054 68.1244 15.1947C68.145 16.9775 68.8068 18.6936 69.9893 20.0306L71.8541 21.5186C72.6001 21.8906 73.346 22.0766 74.2785 22.0766ZM91.6217 25.6105H87.519V5.15086H90.6893L91.6217 7.01083C91.9947 6.45284 92.7407 5.89485 93.4866 5.52285C94.0461 5.15086 94.9785 4.77887 95.9109 4.77887C97.5522 4.80303 99.1341 5.3947 100.387 6.45284L101.692 7.94081C102.065 7.19683 102.811 6.45284 103.743 5.70885C104.682 5.08755 105.787 4.76341 106.914 4.77887L109.338 5.15086C110.248 5.44373 111.085 5.92712 111.792 6.56866C112.5 7.2102 113.062 7.9951 113.441 8.8708C113.814 9.98678 114 11.4748 114 13.1487V25.6105H110.27V13.1487C110.27 11.2888 109.711 10.1728 108.965 9.42879C108.406 8.8708 107.287 8.4988 106.168 8.4988C105.235 8.4988 104.303 8.8708 103.743 9.61479C103.184 10.3588 102.811 11.4748 102.811 13.1487V25.6105H98.8947V13.1487C98.8947 11.2888 98.5218 10.1728 97.7758 9.42879C97.0299 8.8708 96.0974 8.4988 94.9785 8.4988C94.0461 8.4988 93.3001 8.8708 92.7407 9.42879C91.9947 10.1728 91.6217 11.1028 91.6217 12.4047V25.4245V25.6105Z" fill="white"/>
</svg>
