<svg width="27" height="16" viewBox="0 0 27 16" fill="none" xmlns="http://www.w3.org/2000/svg">
<path fill-rule="evenodd" clip-rule="evenodd" d="M13.5164 0.251465C10.0939 0.251465 7.9553 1.97348 7.09928 5.41752C8.38281 3.6955 9.8801 3.04987 11.5911 3.48012C12.5674 3.72554 13.2655 4.43838 14.0375 5.2276C15.2959 6.51275 16.7524 8.00004 19.9331 8.00004C23.3552 8.00004 25.4942 6.27802 26.3498 2.83449C25.0667 4.55651 23.5694 5.20214 21.8584 4.77138C20.8817 4.52596 20.1836 3.81312 19.4115 3.02441C18.1532 1.73825 16.6971 0.251465 13.5164 0.251465ZM7.09928 8.00004C3.67719 8.00004 1.53814 9.72205 0.682617 13.1661C1.96615 11.4441 3.46344 10.7984 5.17398 11.2287C6.15071 11.4741 6.84881 12.187 7.62084 12.9762C8.87922 14.2613 10.3353 15.7486 13.5164 15.7486C16.9385 15.7486 19.0776 14.0271 19.9331 10.5831C18.6496 12.3051 17.1523 12.9507 15.4412 12.5205C14.465 12.2745 13.7669 11.5617 12.9949 10.773C11.7365 9.48783 10.2799 8.00004 7.09928 8.00004Z" fill="#38BDF8"/>
</svg>
