<svg width="24" height="24" viewBox="0 0 24 24" fill="none" xmlns="http://www.w3.org/2000/svg">
<g clip-path="url(#clip0_3307_794)">
<path d="M20.4 0H3.6C1.61177 0 0 1.61177 0 3.6V20.4C0 22.3882 1.61177 24 3.6 24H20.4C22.3882 24 24 22.3882 24 20.4V3.6C24 1.61177 22.3882 0 20.4 0Z" fill="#3178C6"/>
<path d="M10.9219 13.3126H13.9219V11.3908H5.53125V13.3126H8.53125V21.8908H10.9219V13.3126ZM14.8594 21.422C15.2391 21.6189 15.7031 21.7642 16.2187 21.8626C16.7344 21.9611 17.2969 22.0079 17.8594 22.0079C18.4219 22.0079 18.9375 21.9564 19.4531 21.8486C19.9687 21.7408 20.3906 21.5626 20.7656 21.3329C21.1453 21.0845 21.4687 20.7704 21.6562 20.3486C21.8437 19.9267 21.9891 19.4579 21.9891 18.8486C21.9891 18.422 21.9234 18.0517 21.7969 17.7236C21.6703 17.3954 21.4875 17.1142 21.2344 16.8798C20.9953 16.6314 20.7187 16.4111 20.3906 16.2236C20.0625 16.0361 19.6875 15.8392 19.2656 15.6611C18.9562 15.5345 18.7031 15.4126 18.4219 15.2908C18.1781 15.1689 17.9672 15.047 17.8125 14.9251C17.6391 14.7986 17.5078 14.6673 17.4141 14.5314C17.3203 14.3908 17.2734 14.2361 17.2734 14.0626C17.2734 13.9033 17.3152 13.7579 17.4 13.6267C17.4848 13.4954 17.6016 13.3876 17.7516 13.2939C17.9016 13.2001 18.0891 13.1298 18.3141 13.0783C18.5344 13.0267 18.7781 13.0033 19.0641 13.0033C19.2609 13.0033 19.4672 13.0178 19.6734 13.0473C19.8891 13.0768 20.1094 13.1223 20.3297 13.1833C20.55 13.2442 20.7656 13.3192 20.9859 13.4129C21.1922 13.5067 21.3844 13.6145 21.5484 13.7364V11.5333C21.1922 11.3973 20.7984 11.2942 20.3766 11.2286C19.9547 11.1629 19.4859 11.1301 18.9234 11.1301C18.3609 11.1301 17.8453 11.1911 17.3297 11.3083C16.8141 11.4254 16.3922 11.6129 16.0172 11.8708C15.6375 12.1239 15.3609 12.4333 15.1266 12.8551C14.9062 13.2489 14.7984 13.6989 14.7984 14.2614C14.7984 14.9645 15 15.5739 15.4078 16.0426C15.8109 16.5583 16.4391 16.9333 17.2359 17.3083C17.5594 17.4395 17.8453 17.5708 18.1266 17.6973C18.4078 17.8239 18.6422 17.9551 18.8297 18.0911C19.0312 18.227 19.1906 18.377 19.2984 18.5364C19.4156 18.6958 19.4766 18.8833 19.4766 19.0989C19.4766 19.2489 19.44 19.3895 19.3687 19.5208C19.2975 19.652 19.1859 19.7645 19.0359 19.8583C18.8859 19.952 18.7031 20.027 18.4734 20.0833C18.2531 20.1348 18.0047 20.1629 17.6766 20.1629C17.1609 20.1629 16.6453 20.0739 16.1766 19.8958C15.6609 19.7176 15.1922 19.4504 14.8594 19.172V21.422Z" fill="white"/>
</g>
<defs>
<clipPath id="clip0_3307_794">
<rect width="24" height="24" fill="white"/>
</clipPath>
</defs>
</svg>
