<svg width="17" height="14" viewBox="0 0 17 14" fill="none" xmlns="http://www.w3.org/2000/svg">
<path d="M11.454 2.07325C10.8736 2.07342 10.3164 2.3014 9.90238 2.70816C9.48834 3.11491 9.25049 3.66793 9.24001 4.24825L9.21801 5.45125C9.21693 5.51594 9.20212 5.57967 9.17458 5.63821C9.14703 5.69675 9.10736 5.74878 9.05821 5.79084C9.00905 5.83291 8.95152 5.86406 8.88943 5.88223C8.82733 5.9004 8.76209 5.90518 8.69801 5.89625L7.50601 5.73425C5.93701 5.52025 4.43401 4.79725 2.99201 3.59625C2.53501 6.12425 3.42701 7.87625 5.57601 9.22725L6.91001 10.0663C6.97318 10.1063 7.02561 10.1612 7.06277 10.2262C7.09993 10.2911 7.12069 10.3641 7.12325 10.4389C7.12582 10.5137 7.1101 10.5879 7.07747 10.6553C7.04484 10.7226 6.99628 10.7809 6.93601 10.8253L5.72001 11.7133C6.44401 11.7583 7.13001 11.7263 7.70001 11.6133C11.304 10.8933 13.7 8.18225 13.7 3.70825C13.7 3.34325 12.927 2.07325 11.454 2.07325ZM7.71201 4.21925C7.72533 3.48292 7.95557 2.76688 8.3739 2.16078C8.79223 1.55468 9.38007 1.08545 10.0638 0.811845C10.7476 0.538242 11.4968 0.47242 12.2178 0.622622C12.9388 0.772823 13.5994 1.13237 14.117 1.65625C14.66 1.65325 15.122 1.79025 16.156 1.16425C15.9 2.41625 15.774 2.96025 15.228 3.70825C15.228 9.54625 11.64 12.3843 8.00001 13.1113C5.50301 13.6093 1.87301 12.7913 0.833008 11.7053C1.36301 11.6633 3.51701 11.4323 4.76301 10.5213C3.70901 9.82625 -0.483992 7.35925 2.27101 0.725254C3.56501 2.23525 4.87601 3.26425 6.20501 3.80925C7.09001 4.17225 7.30701 4.16425 7.71201 4.22025V4.21925Z" fill="white"/>
</svg>
