<svg width="16" height="16" viewBox="0 0 16 16" fill="none" xmlns="http://www.w3.org/2000/svg">
<path d="M4.30812 12.9596L4.86112 13.2836C6.14414 14.0299 7.65491 14.2837 9.11135 13.9976C10.5678 13.7116 11.8703 12.9052 12.7758 11.7291C13.6812 10.553 14.1277 9.08757 14.0318 7.6064C13.9359 6.12524 13.3042 4.7296 12.2547 3.68006C11.2052 2.63053 9.80953 1.99885 8.32836 1.90296C6.8472 1.80707 5.38176 2.25353 4.20566 3.15898C3.02957 4.06443 2.22321 5.36697 1.93714 6.82341C1.65108 8.27985 1.90487 9.79062 2.65112 11.0736L2.97412 11.6266L2.47412 13.4606L4.30812 12.9606V12.9596ZM0.298118 15.6396L1.33112 11.8436C0.397793 10.2399 0.0801115 8.35127 0.437396 6.53044C0.79468 4.7096 1.8025 3.08106 3.27266 1.94893C4.74282 0.816798 6.57479 0.258481 8.42648 0.378241C10.2782 0.498001 12.023 1.28765 13.335 2.59973C14.6471 3.9118 15.4368 5.6566 15.5565 7.50828C15.6763 9.35997 15.118 11.1919 13.9858 12.6621C12.8537 14.1323 11.2252 15.1401 9.40433 15.4974C7.58349 15.8547 5.69486 15.537 4.09112 14.6036L0.298118 15.6396ZM5.17812 4.41565C5.28029 4.40815 5.38282 4.40715 5.48512 4.41265L5.60912 4.42465C5.73012 4.43865 5.86412 4.51265 5.90912 4.61465C6.13712 5.13165 6.35912 5.65165 6.57212 6.17365C6.62012 6.28965 6.59212 6.43865 6.50212 6.58365C6.43912 6.68165 6.37212 6.77665 6.30012 6.86765C6.21412 6.97765 6.02812 7.18165 6.02812 7.18165C6.02812 7.18165 5.95312 7.27165 5.98212 7.38365C5.99212 7.42665 6.02812 7.48865 6.06012 7.54065L6.10512 7.61365C6.30012 7.93965 6.56312 8.27065 6.88412 8.58165C6.97512 8.67065 7.06412 8.76165 7.16112 8.84665C7.51898 9.16213 7.92385 9.41989 8.36112 9.61065L8.36412 9.61165C8.42912 9.63965 8.46212 9.65565 8.55712 9.69565C8.60412 9.71565 8.65312 9.73265 8.70312 9.74565C8.75435 9.75859 8.80827 9.75609 8.85809 9.73848C8.9079 9.72086 8.95141 9.68892 8.98312 9.64665C9.53612 8.97665 9.58712 8.93365 9.59112 8.93365V8.93465C9.62963 8.89888 9.67533 8.87173 9.72516 8.855C9.775 8.83827 9.82782 8.83236 9.88012 8.83765C9.92653 8.83967 9.97222 8.84983 10.0151 8.86765C10.4211 9.05365 11.0851 9.34365 11.0851 9.34365L11.5291 9.54365C11.6041 9.57865 11.6721 9.66365 11.6741 9.74565C11.6771 9.79565 11.6821 9.87865 11.6641 10.0306C11.6422 10.223 11.5941 10.4114 11.5211 10.5906C11.4803 10.6753 11.4263 10.753 11.3611 10.8206C11.2837 10.9016 11.199 10.9752 11.1081 11.0406C11.0769 11.0643 11.0452 11.0873 11.0131 11.1096C10.9181 11.1696 10.8201 11.2256 10.7201 11.2776C10.5235 11.3821 10.3064 11.4422 10.0841 11.4536C9.94212 11.4606 9.80112 11.4716 9.65912 11.4636L9.22512 11.3976C8.13917 11.1119 7.13488 10.5767 6.29212 9.83465C6.11912 9.68265 5.96012 9.51965 5.79612 9.35665C5.11612 8.68065 4.60312 7.95065 4.29112 7.26165C4.13154 6.92353 4.04532 6.55546 4.03812 6.18165C4.03534 5.71829 4.18699 5.26722 4.46912 4.89965C4.52512 4.82765 4.57812 4.75265 4.66912 4.66665C4.73488 4.59802 4.81035 4.53939 4.89312 4.49265C4.98162 4.44807 5.07822 4.42188 5.17712 4.41565H5.17812Z" fill="white"/>
</svg>
